<svg width="60" height="60" viewBox="0 0 60 60" fill="none" xmlns="http://www.w3.org/2000/svg">
<path d="M14.0252 16.611L13.8597 17.4741L11.8818 27.8075L10.7612 33.6553H10.7725L11.8893 27.8075L13.8673 17.4741L14.0327 16.611H14.0252ZM26.0772 16.611L25.9117 17.4741L23.9338 27.8075L22.8169 33.6553H22.8282L23.945 27.8075L25.923 17.4741L26.0885 16.611H26.0772Z" fill="#224479"/>
<path d="M53.0165 0L51.0385 10.3333H27.288L20.3238 46.7514L10.3776 49.3754C9.39241 48.5574 9.10286 48.3147 8.11389 47.4966L10.7612 33.6553H10.7725L11.8893 27.8075L13.8673 17.4741L14.0327 16.611H14.0252L17.2027 0H53.0165Z" fill="#224479"/>
<path d="M13.8597 17.4741L11.8818 27.8075H11.8893L13.8673 17.4741H13.8597ZM25.9117 17.4741L23.9338 27.8075H23.945L25.923 17.4741H25.9117ZM4.17302 17.4742L2.19507 27.8075H9.74965L11.7276 17.4742H4.17302ZM57.559 30.754C59.1233 22.5767 53.0766 17.4742 43.5667 17.4742H28.0514L26.0734 27.8075H41.5887C44.2849 27.8075 45.8116 29.1178 45.3829 31.3433C44.9467 33.6345 42.9199 34.9414 40.2237 34.9414H34.2597L32.2855 45.2817L40.5396 60H53.8137L54.2762 57.577L45.6913 43.4445L45.7665 43.0562C51.8056 41.1601 56.4196 36.7058 57.559 30.754Z" fill="#224479"/>
<path d="M14.0327 16.611L13.8673 17.4741L11.8893 27.8075L10.7725 33.6553H10.7612L11.8818 27.8075L13.8597 17.4741L14.0252 16.611H14.0327Z" fill="#224479"/>
</svg>
