<svg width="160" height="50" viewBox="0 0 160 50" fill="none" xmlns="http://www.w3.org/2000/svg">
<g clip-path="url(#clip0_984_377)">
<path d="M8.90902 16.8999L8.78442 17.5489L7.29486 25.3186L6.45097 29.7155H6.45947L7.30053 25.3186L8.79009 17.5489L8.91469 16.8999H8.90902ZM17.9851 16.8999L17.8605 17.5489L16.371 25.3186L15.5299 29.7155H15.5384L16.3795 25.3186L17.869 17.5489L17.9936 16.8999H17.9851Z" fill="#224479"/>
<path d="M38.2726 4.41016L36.783 12.1798H18.897L13.6524 39.5624L6.16212 41.5355C5.42017 40.9204 5.20212 40.7379 4.45734 40.1228L6.45097 29.7155H6.45947L7.30053 25.3186L8.79009 17.5489L8.91469 16.8999H8.90902L11.3019 4.41016H38.2726Z" fill="#224479"/>
<path d="M8.78442 17.5489L7.29486 25.3186H7.30053L8.79009 17.5489H8.78442ZM17.8605 17.5489L16.371 25.3186H16.3795L17.869 17.5489H17.8605ZM1.48956 17.549L0 25.3186H5.6892L7.17876 17.549H1.48956ZM41.6935 27.534C42.8715 21.3856 38.3179 17.549 31.1561 17.549H19.4719L17.9823 25.3186H29.6665C31.697 25.3186 32.8467 26.3038 32.5239 27.9771C32.1954 29.6999 30.669 30.6825 28.6386 30.6825H24.1473L22.6605 38.4574L28.8765 49.5241H38.8729L39.2212 47.7022L32.7561 37.076L32.8127 36.7841C37.3607 35.3584 40.8354 32.0092 41.6935 27.534Z" fill="#224479"/>
<path d="M8.91469 16.8999L8.79009 17.5489L7.30053 25.3186L6.45947 29.7155H6.45097L7.29486 25.3186L8.78442 17.5489L8.90902 16.8999H8.91469Z" fill="#224479"/>
<path d="M53.4492 17.7991V4.41016H65.0202V6.34931H55.794V10.5065H64.6945V12.4248H55.794V17.7991H53.4492Z" fill="#224479"/>
<path d="M66.3087 17.7991V4.41016H77.9448V6.34931H68.6534V10.1051H77.6191V12.0234H68.6534V15.86H77.9448V17.7991H66.3087Z" fill="#224479"/>
<path d="M79.7147 17.7991V4.41016H82.2322L88.7455 12.2423L90.6343 14.7393H90.8071L90.6995 12.3205V4.41016H93.0443V17.7991H90.5267L83.971 9.98521L82.1473 7.62643H81.9745L82.0623 9.94351V17.7965H79.7147V17.7991Z" fill="#224479"/>
<path d="M95.2673 17.7991V4.41016H97.612V17.7991H95.2673Z" fill="#224479"/>
<path d="M98.4446 17.7991L104.307 11.1451V10.9861L98.4446 4.41016H101.483L106.215 9.68548H106.388L111.018 4.41016H114.057L108.195 11.0043V11.1633L114.057 17.7965H111.018L106.306 12.4222H106.133L101.486 17.7965H98.4446V17.7991Z" fill="#224479"/>
<path d="M53.4492 36.7527V23.3637H61.0046C64.3037 23.3637 66.3455 24.8024 66.3455 27.2993C66.3455 29.5174 64.7597 30.8753 62.0241 31.016V31.1568C63.154 31.4357 63.6751 32.0351 64.1961 32.8744L66.6287 36.7501H63.9356L61.6135 33.0542C60.9621 31.996 60.2882 31.5556 58.4644 31.5556H55.794V36.7501H53.4492V36.7527ZM55.794 29.8979H60.982C62.9359 29.8979 63.9129 29.2776 63.9129 27.5991C63.9129 25.9597 62.9359 25.3002 60.982 25.3002H55.794V29.8979Z" fill="#224479"/>
<path d="M67.937 36.7527V23.3637H79.5759V25.3029H70.2846V29.0586H79.2503V30.9769H70.2846V34.8135H79.5759V36.7527H67.937Z" fill="#224479"/>
<path d="M81.343 36.7527V23.3637H88.4652C91.6991 23.3637 93.9136 25.0631 93.9136 28.0396C93.9136 30.9978 91.6991 32.7154 88.4652 32.7154H83.6878V36.7527H81.343ZM83.6878 25.3029V30.7789H88.2471C90.439 30.7789 91.5689 30.0204 91.5689 28.0422C91.5689 26.0639 90.439 25.3055 88.2471 25.3055H83.6878V25.3029Z" fill="#224479"/>
<path d="M94.6867 30.057C94.6867 25.8816 97.7055 23.1631 102.265 23.1631C106.867 23.1631 109.863 25.8816 109.863 30.057C109.863 34.2324 106.867 36.9509 102.265 36.9509C97.7055 36.9509 94.6867 34.235 94.6867 30.057ZM107.388 30.057C107.388 26.7208 105.717 25.2222 102.265 25.2222C98.8127 25.2222 97.1618 26.7208 97.1618 30.057C97.1618 33.3932 98.8127 34.8736 102.265 34.8736C105.717 34.8736 107.388 33.3958 107.388 30.057Z" fill="#224479"/>
<path d="M113.853 36.7527L110.01 23.3637H112.615L114.983 31.8371L115.634 34.6754H115.807L116.588 31.8371L119.519 23.3637H122.929L126.055 31.8371L126.879 34.6754H127.052L127.661 31.8371L129.833 23.3637H132.396L128.748 36.7527H125.296L122.365 28.9596L121.301 25.5218H121.105L120.063 28.9596L117.305 36.7527H113.853Z" fill="#224479"/>
<path d="M133.438 36.7527V23.3637H145.074V25.3029H135.783V29.0586H144.748V30.9769H135.783V34.8135H145.074V36.7527H133.438Z" fill="#224479"/>
<path d="M146.844 36.7527V23.3637H154.399C157.698 23.3637 159.74 24.8024 159.74 27.2993C159.74 29.5174 158.154 30.8753 155.419 31.016V31.1568C156.549 31.4357 157.07 32.0351 157.591 32.8744L160.023 36.7501H157.33L155.008 33.0542C154.357 31.996 153.683 31.5556 151.859 31.5556H149.189V36.7501H146.844V36.7527ZM149.189 29.8979H154.377C156.331 29.8979 157.308 29.2776 157.308 27.5991C157.308 25.9597 156.331 25.3002 154.377 25.3002H149.189V29.8979Z" fill="#224479"/>
</g>
<defs>
<clipPath id="clip0_984_377">
<rect width="160" height="49" fill="white" transform="translate(0 0.5)"/>
</clipPath>
</defs>
</svg>
