<svg width="40" height="40" viewBox="0 0 40 40" fill="none" xmlns="http://www.w3.org/2000/svg">
<path fill-rule="evenodd" clip-rule="evenodd" d="M16.5713 25.9995V17.9037H13.8807V25.9995H16.5713V25.9995ZM15.2263 16.7988C16.1643 16.7988 16.7486 16.1766 16.7486 15.3997C16.7308 14.6056 16.1643 14.001 15.2439 14.001C14.3234 14.001 13.7217 14.6056 13.7217 15.3998C13.7217 16.1766 14.3056 16.7988 15.2086 16.7988L15.2263 16.7988ZM18.0605 25.9995C18.0605 25.9995 18.0958 18.6633 18.0605 17.9038H20.7515V19.0778H20.7336C21.0875 18.5254 21.7249 17.7137 23.1764 17.7137C24.9472 17.7137 26.2744 18.8707 26.2744 21.3575V25.9996H23.5839V21.6685C23.5839 20.5803 23.1946 19.8377 22.2206 19.8377C21.4774 19.8377 21.0345 20.3383 20.84 20.8222C20.7688 20.9945 20.7515 21.2364 20.7515 21.4784V25.9995H18.0605Z" fill="#224479"/>
<rect x="0.5" y="0.5" width="39" height="39" rx="19.5" stroke="#224479"/>
</svg>
