<svg width="40" height="40" viewBox="0 0 40 40" fill="none" xmlns="http://www.w3.org/2000/svg">
<rect x="0.5" y="0.5" width="39" height="39" rx="19.5" fill="#224479"/>
<path d="M14.6663 25.3337C14.2997 25.3337 13.9858 25.2031 13.7247 24.942C13.4636 24.6809 13.333 24.367 13.333 24.0003V16.0003C13.333 15.6337 13.4636 15.3198 13.7247 15.0587C13.9858 14.7975 14.2997 14.667 14.6663 14.667H25.333C25.6997 14.667 26.0136 14.7975 26.2747 15.0587C26.5358 15.3198 26.6663 15.6337 26.6663 16.0003V24.0003C26.6663 24.367 26.5358 24.6809 26.2747 24.942C26.0136 25.2031 25.6997 25.3337 25.333 25.3337H14.6663ZM19.9997 20.667L14.6663 17.3337V24.0003H25.333V17.3337L19.9997 20.667ZM19.9997 19.3337L25.333 16.0003H14.6663L19.9997 19.3337ZM14.6663 17.3337V16.0003V24.0003V17.3337Z" fill="white"/>
<rect x="0.5" y="0.5" width="39" height="39" rx="19.5" stroke="#224479"/>
</svg>
