<svg width="540" height="557" viewBox="0 0 540 557" fill="none" xmlns="http://www.w3.org/2000/svg">
<g clip-path="url(#clip0_1510_3192)">
<path d="M323.896 445.514L324.795 446.611L324.181 445.843L323.896 445.514Z" stroke="#224479" stroke-miterlimit="10" stroke-linecap="round" stroke-linejoin="round"/>
<path d="M359.374 401.661L358.584 399.664L359.659 402.363L359.374 401.661Z" stroke="#224479" stroke-miterlimit="10" stroke-linecap="round" stroke-linejoin="round"/>
<path d="M328.657 464.668L328.855 464.471L329.623 463.725L328.657 464.668Z" stroke="#224479" stroke-miterlimit="10" stroke-linecap="round" stroke-linejoin="round"/>
<path d="M337.651 476.821L337.673 476.69L337.98 475.637L337.651 476.821Z" stroke="#224479" stroke-miterlimit="10" stroke-linecap="round" stroke-linejoin="round"/>
<path d="M399.743 400.104L397.11 400.543L404.219 399.336L399.743 400.104Z" stroke="#224479" stroke-miterlimit="10" stroke-linecap="round" stroke-linejoin="round"/>
<path d="M222.669 413.2L222.823 411.664L222.647 413.485L222.669 413.2Z" stroke="#224479" stroke-miterlimit="10" stroke-linecap="round" stroke-linejoin="round"/>
<path d="M185.945 384.127L187.569 383.732L187.525 383.754L185.945 384.127Z" stroke="#224479" stroke-miterlimit="10" stroke-linecap="round" stroke-linejoin="round"/>
<path d="M202.772 409.297L199.086 410.394L202.706 409.319L202.772 409.297Z" stroke="#224479" stroke-miterlimit="10" stroke-linecap="round" stroke-linejoin="round"/>
<path d="M328.617 386.302L328.003 383.494L328.661 386.412L328.617 386.302Z" stroke="#224479" stroke-miterlimit="10" stroke-linecap="round" stroke-linejoin="round"/>
<path d="M221.419 410.742L220.278 409.996L222.823 411.663L221.419 410.742Z" stroke="#224479" stroke-miterlimit="10" stroke-linecap="round" stroke-linejoin="round"/>
<path d="M297.743 427.61L297.677 427.106L297.238 423.508L297.743 427.61Z" stroke="#224479" stroke-miterlimit="10" stroke-linecap="round" stroke-linejoin="round"/>
<path d="M265.146 427.945L267.734 424.325L267.756 424.303L265.146 427.945Z" stroke="#224479" stroke-miterlimit="10" stroke-linecap="round" stroke-linejoin="round"/>
<path d="M195.839 433.166L198.471 434.109L196.014 433.232L195.839 433.166Z" stroke="#224479" stroke-miterlimit="10" stroke-linecap="round" stroke-linejoin="round"/>
<path d="M422.403 437.727L420.582 434.677L420.428 434.414L422.403 437.727Z" stroke="#224479" stroke-miterlimit="10" stroke-linecap="round" stroke-linejoin="round"/>
<path d="M231.886 420.681L234.167 417.982L234.123 418.048L231.886 420.681Z" stroke="#224479" stroke-miterlimit="10" stroke-linecap="round" stroke-linejoin="round"/>
<path d="M358.493 314.713L360.468 317.784L359.941 316.951L358.493 314.713Z" stroke="#224479" stroke-miterlimit="10" stroke-linecap="round" stroke-linejoin="round"/>
<path d="M356.347 386.586L358.497 386.74L356.04 386.586H356.347Z" stroke="#224479" stroke-miterlimit="10" stroke-linecap="round" stroke-linejoin="round"/>
<path d="M396.118 261.559L393.859 261.23L390.48 260.77L396.118 261.559Z" stroke="#224479" stroke-miterlimit="10" stroke-linecap="round" stroke-linejoin="round"/>
<path d="M353.034 395.403L353.517 395.096L350.489 396.982L353.034 395.403Z" stroke="#224479" stroke-miterlimit="10" stroke-linecap="round" stroke-linejoin="round"/>
<path d="M320.387 434.148L321.857 434.938L321.615 434.785L320.387 434.148Z" stroke="#224479" stroke-miterlimit="10" stroke-linecap="round" stroke-linejoin="round"/>
<path d="M403.56 280.359L402.66 280.579L400.773 280.996L403.56 280.359Z" stroke="#224479" stroke-miterlimit="10" stroke-linecap="round" stroke-linejoin="round"/>
<path d="M214.466 303.525L215.695 304.074L217.713 303.723L217.581 303.613L218.196 302.275L216.638 300.783H215.782L215.848 299.291L217.143 298.216L217.318 296.57L216.221 296.066L216.287 294.574L220.675 292.424L219.731 291.678L221.355 289.945L222.298 290.515L224.624 289.682L224.536 286.72L223.505 284.723L224.865 283.407L226.862 283.144L228.222 284.636L228.99 284.065L229.867 284.394L230.635 283.319L231.315 281.498L229.341 279.414L228.222 280.248L225.567 280.182L224.273 278.844L223.066 277.11L221.947 276.869L222.913 275.706V273.469L220.763 272.064L217.406 272.306L215.782 273.052L213.983 272.81L213.106 273.556L215.015 276.035L214.488 276.869L216.287 279.019L216.112 279.677L214.4 279.019L212.514 279.414L212.163 278.427L213.369 277.198L212.163 275.114H211.57L209.771 277.527L210.802 278.931L208.652 280.423L207.358 279.019H205.471L204.199 278.339L202.641 279.919L205.054 281.652V283.736L203.584 282.661L202.641 282.902L203.08 285.645L204.615 286.457V288.936L205.91 290.186L202.816 291.59L201.522 294.75L202.816 295.737L204.703 294.75L207.27 296.987L207.797 300.3L206.853 300.871L207.314 302.56L210.298 302.406L214.466 303.525Z" stroke="#224479" stroke-miterlimit="10" stroke-linecap="round" stroke-linejoin="round"/>
<path d="M235.416 240.497L236.645 238.281L236.14 231.502L234.429 228.584L235.328 226.697L236.886 225.907L235.745 223.691L236.469 222.419L240.001 222.112L240.967 220.444L240.813 218.163L242.437 214.784L240.813 212.568L240.001 207.588L237.851 203.573L238.027 201.752L243.182 200.107L243.248 196.553L244.323 194.117L240.396 189.927L237.127 188.347L236.974 184.245L237.698 180.23L237.127 175.798L235.899 172.815L236.886 169.414L236.228 163.666L235.153 158.05L235.986 153.157L238.509 148.835L240.967 147.409L243.994 148.023L247.833 148.265L249.808 145.676L249.479 141.573L248.426 139.906L248.579 137.229L252.419 128.146L252.594 122.947L253.735 117.989L254.876 115.224L254.788 112.065L253.165 110.485L253.253 108.27L256.851 106.229L260.69 105.439L262.489 103.948L262.642 101.732L265.758 96.4445L268.939 92.1883L270.014 89.6653L268.785 86.4183L267.469 85.0142L267.403 79.9681L268.873 79.2442L270.255 77.4232L270.913 74.7467L272.471 73.9568L274.182 70.3369L276.552 68.6037L279.075 69.7006L280.15 70.8853L281.62 70.644L283.331 69.1522L281.949 66.8705L283.265 65.6858V64.5011L283.836 63.3163L282.037 60.552L283.178 59.85L286.446 59.9158L288.904 58.6653L292.655 59.6086L294.959 61.1005L297.57 61.3418L299.039 62.5265L300.202 62.1317L301.255 62.7679V60.0694L300.027 58.3362L300.356 54.9575L302.155 54.0142L301.584 51.7106L299.785 50.7672L299.61 48.5732L302.221 49.3631L304.766 48.8804L305.621 48.4855L305.599 48.4635L306.06 47.8054L307.025 48.2661L307.793 47.7615L307.135 46.1161L307.552 44.2293L309.11 42.9568L311.238 43.2859L312.949 45.7212L317.775 49.5166L318.675 51.7983L320.474 54.1677L323.655 55.4183L328.964 55.5938L331.751 52.983L333.308 51.4034L335.678 51.4912L339.451 54.0142L341.974 54.4091L343.291 52.0396L344.761 51.2498L346.56 49.5825L348.512 49.758L350.487 48.4855L351.299 47.0594L350.487 45.1727L349.434 41.8599L350.004 36.2654L350.728 34.5322L349.675 32.8648L350.969 32.075L352.768 29.7056L352.615 28.4551L354.984 27.4239L357.924 27.9724L359.657 27.5775L359.482 26.6341L361.368 24.6596L366.195 24.5938L368.323 25.9979L371.066 29.3765L372.667 30.9561L375.124 31.8337L378.898 32.2067L379.556 34.0057L381.816 36.2873L381.421 38.5471L379.424 41.5966L379.841 46.0503L381.18 45.8309L381.267 41.9915L384.317 39.1833L387.015 38.8323L388.771 36.5287L388.529 33.4133L390.416 33.2597L392.742 34.1593L394.146 32.448L394.036 30.2102L393.378 30.1224L391.71 28.8938H390.855L390.087 29.3546L389.999 30.6271L389.1 29.7714L388.551 28.5209L387.301 28.477L387.564 29.6836L387.257 31.9873L386.445 31.5046L385.48 29.9689L383.79 31L383.242 32.2067L382.693 30.4735L382.123 28.104L381.267 27.9724L380.368 25.581L379.468 25.0984L377.582 25.3397L375.958 24.6815L373.303 24.3963L371.987 22.707L372.448 22.2902L375.783 23.1458L378.525 22.8167L380.872 23.2335L385.326 23.8259L388.419 22.7948L390.438 18.9116L394.716 17.8365L396.537 16.3447V15.7304L395.177 15.2697L394.76 14.3921L393.18 13.9094L391.206 14.2385L388.419 12.0007H386.928L385.129 13.9533H383.966L383.637 13.2074L385.414 12.0885L385.721 10.5966L383.549 9.78487L383.11 9.1925L381.531 9.28025L380.083 11.7155H379.249L379.424 9.98231L378.437 10.1578L377.56 11.4303L376.572 11.3425L376.177 10.2236L377.625 9.23639V7.96392L375.497 6.69144L373.347 6.62563L372.031 7.41544L371.68 10.4431L370.188 11.0573L370.013 12.0885L371.285 15.1819L371.131 16.5421L369.969 17.5733L369.025 15.6865L367.643 15.5548L367.314 16.2569L365.471 15.9278L362.729 17.1345L364.879 14.2385L366.546 13.8217L367.621 11.7594L367.314 10.7282L366.502 10.8599L364.286 12.4614L362.992 12.0885L363.299 11.1451L364.747 9.98231L364.879 9.0828L362.904 8.6221L362.531 7.7884L364.155 7.30574L364.835 7.92003H367.226L368.587 4.54142L368.214 3.13731L365.998 3.66383L364.967 3.00568L365.383 1.44799L364.791 0L363.343 1.22859L362.136 1.09696L360.842 0.0438876L359.219 1.51381L359.306 2.54495L360.645 4.16846L359.745 5.35315H358.758L357.156 3.15924L356.015 4.21231L355.423 6.05522L355.928 6.84503L357.639 6.88889L358.451 7.63481L358.275 8.53432L356.915 9.12669V10.6405L355.577 11.2987V12.7466L355.972 13.4048L354.743 14.1946L355.445 16.3447L354.809 17.0467L353.361 16.0595L352.044 17.0467L351.737 17.8804L350.289 18.8677L350.158 16.8054L352.001 12.9441L350.202 12.3517L350.377 11.3425L351.649 10.1139L351.693 6.80115L351.013 5.72612L349.938 5.77L347.108 10.2675L347.02 12.7905L344.146 16.586L343.466 19.2626L344.08 20.4253L343.773 22.6192L340.855 25.7127L339.364 26.3709V24.4841L338.684 23.1019L340.57 20.2279L340.175 18.3192L340.943 16.8712L340.044 14.9844L343.357 11.4742L343.905 9.36802L344.432 8.99506L344.212 7.7884L342.435 7.63481L340.636 5.85775L339.737 6.14296L340.044 8.07362L338.771 9.49965L338.684 7.59096L337.17 6.18685L335.349 5.81389L333.967 6.51593L334.274 9.14862L333.594 10.4431L332.65 9.32413L331.4 8.6221L330.456 9.52158L330.764 10.3553L333.33 12.0007L333.945 13.8656L333.33 14.5237L332.211 13.4048L330.851 14.6115L330.72 15.7523L331.356 16.586L330.676 17.2881L328.657 16.0156L327.582 16.1033L326.441 18.3631L324.95 18.9774V19.811L325.849 20.4253L323.743 21.7417L323.282 23.3652L324.972 25.0984L323.699 26.327L325.41 27.1168L326.178 27.9066L325.235 28.85L322.448 28.6087L321.725 25.7566L320.408 25.3836L321.637 24.0672L319.882 23.1458L317.951 23.3652L315.472 23.1897L312.005 20.557L310.996 20.5131L309.833 21.8733L309.066 20.4253L307.289 21.9611L305.248 22.3999L305.16 23.3213L307.596 26.1295L309.373 26.0856L310.338 27.1826L312.905 27.3581L311.786 29.3985L311.874 31.2852L313.629 33.5669L313.388 35.0368L311.874 33.9618L310.382 31.5266L308.408 30.7368L307.267 29.3985L306.652 31.2413L304.985 32.6016L304.612 30.0128L302.923 31.373L302.901 32.4699L300.926 34.1373L301.058 35.8705L303.405 36.9016L304.393 38.92L302.594 38.6348L301.606 37.6915L300.071 39.8854L299.566 41.5747L297.065 43.4614L297.043 42.3206L298.71 41.1578L298.14 39.6221L299.72 36.5725L298.491 30.4076L296.868 31.4169L294.301 35.3659L294.235 38.0205L294.63 39.0956L292.875 41.2237L292.655 39.1833L293.73 36.9016L292.918 33.9398L291.756 33.6766L289.584 35.0368L288.092 37.7573L289.079 39.8854L288.948 41.7721L292.019 43.9222L292.875 45.414L291.646 47.7176L290.659 44.7778L288.377 43.7905L286.885 39.9512L286.205 39.5343L283.287 40.4997L282.892 41.8599L285.81 44.0538L287.192 44.2074L287.916 45.041L285.986 44.7559L284.055 45.3702L285.349 47.4324L283.156 45.9406L282.892 43.4395L282.037 42.9129L281.576 41.2237L280.282 42.1889L279.777 44.9094L280.808 46.138L280.435 48.5952L278.636 47.6737L277.034 48.1784L274.906 50.6355L275.411 50.8988L276.859 50.7013L278.285 52.3468L276.442 52.5004L275.104 53.3779L276.354 54.1897L275.499 55.1989L273.875 55.2647L273.831 56.3836L274.446 56.8882L273.107 57.1734L272.164 56.0545L270.541 56.4714L269.114 58.2923L269.685 59.3234L269.005 59.9816L266.767 60.1571L265.648 62.1755L267.491 62.7459L272.405 61.3857L273.568 62.1317L275.63 61.1224L276.859 61.0566L276.925 62.4607L275.499 64.0184L275.06 66.9583L274.555 67.5725L273.656 66.5414L273.415 65.0496L271.572 65.5542L270.76 64.6107L268.478 64.5669L269.202 65.3567L268.522 66.5853L266.855 65.6419L265.604 65.7735L267.293 66.9583L267.974 68.6476L266.942 68.6914L266.262 69.9201L266.592 71.4996L266.175 72.6186L265.231 71.0828L265.275 69.1522L263.718 67.1996L262.182 68.8231L260.58 69.1961L259.812 67.9674L260.427 67.046L259.132 66.8705L257.333 68.8011L258.869 70.3588L261.26 70.271L263.257 71.4338L262.138 73.1012L258.013 73.6716L257.158 72.9257L255.512 73.0134L254.657 74.988L256.039 76.2385L254.657 78.0595L256.302 77.7304L258.364 75.4048L260.163 75.4926L261.194 76.8967L258.189 77.2258L257.75 79.3977L258.869 80.9554L261.26 82.3815L261.194 84.0269L259.549 82.7764L258.189 82.9519L256.477 80.8018L255.424 80.9554L254.064 82.3815L255.6 83.5223L253.56 83.6978L251.563 85.1019V86.4183L253.713 87.3397L255.512 86.1769L256.719 87.3397L258.606 86.7693L259.22 88.4805L260.58 89.2484V90.477L257.684 88.6561H255.359L254.24 89.3142L251.059 89.8188V91.4643L249.26 92.3857L248.492 91.7275L245.727 93.1316L244.192 93.2194L243.906 94.2505L245.618 94.9526L246.912 96.4664L245.376 97.0149L244.543 96.598L243.928 97.1026L245.311 98.3532L244.784 99.1649L242.722 98.8358L242.48 98.2654L241.778 98.9236L243.248 100.086L242.305 100.832L242.568 102.061H243.753L242.568 102.829L241.186 103.07L240.418 102.324V103.553L239.738 104.715L240.923 105.22L243.928 106.207L244.367 107.546L245.574 107.875L247.263 107.129L245.903 108.357V109.367H244.016L243.16 108.533L240.067 108.621L237.917 110.507L238.619 111.188L240.835 111.253L241.01 112.679L242.129 113.667L242.042 115.312L240.747 113.996H239.738L238.707 115.246L238.795 116.65L238.18 116.979L239.211 118.142L239.475 119.546H238.531L237.325 118.471L236.557 119.042L236.645 120.775L238.531 121.28L238.86 122.179L238.707 123.342L236.206 121.784L235.175 122.355L235.087 124.088L235.789 124.263L235.701 126.172L236.557 127.993L237.829 127.905L238.795 126.26H239.804L238.86 128.739L237.5 128.98L235.613 130.977H233.968L232.608 131.547L232.52 132.534L230.699 133.28L229.251 134.531L230.809 135.277L230.282 136.198L227.452 136.439L226.158 138.173L226.333 139.006L228.571 139.665L226.86 140.498L225.982 142.297L224.271 142.385L223.942 140.74L222.823 140.081L222.143 141.069H220.673L221.177 142.297L220.146 143.219L219.883 144.469L220.497 145.544H217.909L216.812 146.115L216.987 148.352L215.013 149.603L215.276 150.349L214.925 152.587L213.455 153.749L211.48 155.549L212.095 156.382L214.311 154.978L215.517 155.066L215.342 156.294L213.894 156.887L213.718 159.037L215.013 160.704L217.404 159.366L219.971 159.037L223.415 155.812V154.32L221.616 154.824L223.152 152.828L223.591 150.502L224.359 150.349L225.39 149.427L227.364 149.779L228.571 149.691L225.39 151.665L225.302 153.069L228.395 153.991L227.364 155.307L225.741 155.483L222.56 158.708L224.534 159.695L223.415 161.099L223.503 163.096L221.528 162.92L219.883 161.362L217.579 161.428L216.219 162.525L216.11 164.346L214.311 165.333L212.599 166.233L213.894 164.829L214.837 164.171L213.455 162.437V160.441L211.919 158.291H210.362L209.506 159.783L207.356 160.024V161.033H210.098L207.268 163.512L205.381 162.679L203.758 162.92L201.608 164.829L202.814 165.07L203.933 164.587L204.526 165.158L202.2 166.562L201.169 167.812L200.16 166.825H198.602L198.339 167.812L200.84 169.217H203.758L203.165 170.708L204.438 171.213L204.35 172.529L201.783 171.783L201.366 170.292H199.37L197.417 168.646L196.979 167.308L196.211 167.396L195.86 169.063L197.834 171.63L199.897 173.122L201.696 173.363L202.639 174.35L200.752 174.438L197.659 173.275L194.741 170.138L193.359 170.972L191.56 169.633H189.322L188.225 168.734L187.347 169.721L187.698 171.367L186.492 172.442L188.225 174.197L191.911 173.122L192.503 173.846L190.88 174.943L191.735 175.425L194.565 174.109H195.86L195.18 175.272L191.911 176.588L190.616 178.409L188.4 177.839L186.492 175.425H185.57L184.451 176.347L182.806 174.943L181.424 175.776L180.48 175.184L178.769 176.171L179.296 177.005L182.806 177.51L185.044 178.914L187.786 180.318L187.018 182.051L187.962 183.455L186.338 184.289L185.636 183.455L185.57 180.647L183.661 179.989L181.599 180.318L182.389 181.722L182.038 182.797L179.537 181.305L177.387 183.455L179.537 184.881L177.826 185.035L176.619 185.539L176.027 183.455L172.758 183.367L173.789 185.452L172.429 186.373L171.814 184.376L169.928 182.709L168.896 183.038L169.16 184.201L171.31 186.11L170.366 187.338L171.31 188.26L173.789 187.514L177.146 188.172L179.296 189.51H182.543L183.574 188.764H185.219L183.069 190.849L180.151 190.41L179.032 191.002L175.522 189.247L173.284 189.839L172.253 189.423L170.542 190.849L168.129 191.156L167.953 192.077L171.661 193.657L170.279 195.127L172.078 195.478L173.284 194.71H176.29L174.052 196.224H170.871L170.015 196.619L169.072 196.377L168.984 197.035L170.608 197.716H171.814L169.928 198.769L169.006 199.01L169.269 200.019L170.279 200.721L171.068 201.95L173.635 201.84L174.996 200.875L178.418 200.436L180.744 201.006L181.577 201.577L183.135 200.59L183.179 199.185L184.715 198.769L185.263 199.975H186.952L189.366 198.242L190.485 198.527L190.024 199.449L188.817 200.304L191.011 200.831L192.02 199.844L191.603 198.659L193.227 196.355L192.81 198.11L194.565 200.107L193.227 201.752L190.243 202.454L188.773 203.529L189.585 204.188L188.576 205.833L186.009 205.921L185.921 204.933L187.194 203.946L186.887 201.95L184.802 201.665L182.477 203.858L182.148 205.021L180.568 203.025L178.637 202.608L176.202 203.025L174.776 202.608L171.99 203.946H170.63L169.006 202.893L168.414 203.113L169.313 205.131L168.743 206.206L169.774 207.062L171.398 206.711L172.297 205.679L173.591 205.723L172.122 207.237L172.297 209.014L171.398 209.76L169.818 208.883L170.542 211.296L171.836 212.349L174.996 208.97L177.233 209.87L176.29 210.791L176.531 212.524L173.877 213.929L174.316 214.674L175.939 214.916L175.083 216.254L176.29 217.987L175.522 220.072L176.202 220.137L177.913 217.57L179.449 216.759L179.8 214.587L183.925 212.941L185.987 213.117L187.698 212.612L186.492 213.358L184.364 214.916V217.505L185.044 219.062L183.398 217.746L183.069 215.42L181.863 215.355L180.415 217.899L179.208 218.316L181.27 219.062L179.449 221.388H178.001L177.321 222.88L178.44 223.362H181.511L182.301 224.613L180.064 224.788L179.296 226.017L179.12 227.509L176.707 225.951L175.588 226.434L175.171 228.255L174.645 226.105L173.197 227.026L171.222 229.593L171.99 231.568L174.996 234.639L175.588 232.906L176.378 233.564L178.001 232.796L177.584 231.897L178.506 229.834L180.919 231.568L179.8 232.226L181.182 233.63L180.656 235.451L179.208 236.46L180.48 239.51L181.511 238.347L184.276 237.623L185.373 239.093L183.069 239.268L181.95 240.102L183.157 241.923L182.894 242.669L178.857 239.839L177.475 240.343L176.202 239.356L174.491 239.444V241.089L173.284 242.34L176.114 246.969L178.44 247.386L181.511 249.953L185.812 251.532L186.338 252.849L185.307 253.353L186.952 254.845L188.444 254.143L187.742 252.037L189.124 251.993L190.528 253.112L190.287 253.726L192.547 256.447L193.578 255.218L194.478 255.679L196.408 254.801L198.756 252.607L199.787 252.41L200.73 251.379L201.235 251.488L201.783 253.068L203.165 253.2L207.049 249.404L206.895 248.066L205.184 246.004L208.168 247.825L210.559 245.521L209.923 244.731L211.349 243.788L211.085 242.296L212.841 241.177L214.727 240.848L215.188 239.532L213.389 237.338L214.025 235.89L212.446 233.827L210.515 232.467L210.603 230.646L211.722 231.304L213.872 233.63L214.727 236.636L215.495 237.469L216.855 237.667L216.57 238.873L217.579 240.146L219.773 239.202L219.203 238.04L218.238 237.294L219.006 235.933L220.848 237.491L220.914 238.281L223.744 235.736L224.468 233.367L223.788 231.282L222.296 230.646L221.528 229.439L222.56 228.781L222.713 227.838L223.832 227.728L224.688 226.763L223.525 225.447L223.635 223.428L225.346 222.2L226.926 223.713L225.631 225.688L226.07 228.299L225.587 230.076L226.882 232.05L227.211 233.498L229.58 235.846L232.279 235.604L233.376 236.504L232.717 237.36L234.1 238.281L235.416 240.497Z" stroke="#224479" stroke-miterlimit="10" stroke-linecap="round" stroke-linejoin="round"/>
<path d="M342.876 109.232L340.923 105.195L338.795 104.493L337.654 101.334L338.378 99.7542V95.498L337.895 93.8306L338.466 92.0316L337.72 88.1045L336.447 86.3274L336.074 83.3217L337.149 81.6983L336.447 79.1533L333.464 78.9559L333.222 76.7839L334.232 74.2828L333.617 71.1236L334.451 69.1491L333.398 67.5695L331.84 67.4159L329.888 64.8051L329.054 65.0465L328.067 64.8929L327.255 62.8306L325.061 60.3954L323.503 60.0005L321.77 58.9693L317.36 58.6622L314.421 56.5341L310.406 52.0366L307.466 50.6105L305.623 48.4824L304.767 48.8773L302.222 49.36L299.612 48.5702L299.787 50.7641L301.586 51.7075L302.157 54.0111L300.357 54.9545L300.028 58.3331L301.257 60.0663V62.7648L300.204 62.1286L299.041 62.5235L297.571 61.3388L294.961 61.0974L292.657 59.6055L288.905 58.6622L286.448 59.9127L283.179 59.8469L282.038 60.5489L283.837 63.3133L283.267 64.498V65.6827L281.951 66.8674L283.333 69.1491L281.622 70.6409L280.152 70.8823L279.077 69.6976L276.554 68.6006L274.184 70.3338L272.473 73.9538L270.915 74.7436L270.257 77.4201L268.875 79.2411L267.405 79.9651L267.471 85.0111L268.787 86.4152L270.016 89.6622L268.941 92.1852L265.76 96.4414L262.644 101.729L262.491 103.945L260.692 105.436L256.852 106.226L253.254 108.267L253.167 110.482L254.79 112.062L254.878 115.221L253.737 117.986L252.596 122.944L252.421 128.143L248.581 137.226L248.428 139.903L249.481 141.57L249.81 145.673L247.835 148.262L243.996 148.02L240.968 147.406L238.511 148.832L235.988 153.154L235.154 158.046L236.229 163.663L236.888 169.411L235.9 172.812L237.129 175.795L237.699 180.227L236.975 184.242L237.129 188.344L240.398 189.924L244.325 194.114L243.25 196.55L243.184 200.104L238.028 201.749L237.853 203.57L240.003 207.585L240.815 212.565L242.438 214.781L240.815 218.16L240.968 220.441L240.003 222.109L236.471 222.416L235.747 223.688L236.888 225.904L235.33 226.694L234.43 228.581L236.142 231.499L236.646 238.278L235.418 240.494L234.101 238.278L232.719 237.356L232.522 237.576L230.767 238.585L231.205 243.28L232.105 244.553L232.324 248.107L233.948 248.94L234.54 249.752L234.189 252.078L236.69 251.046L235.132 249.467L235.44 247.778L236.515 247.821L235.988 248.896L237.875 249.971L238.489 251.134L236.207 252.933L235.813 254.666L236.515 256.356L236.207 258.747L235.176 259.8L236.471 261.577L238.336 262.016L239.476 264.846L240.508 265.68L242.57 269.739L242.811 272.81L245.137 273.71L245.729 275.772L247.879 277.856L250.292 276.518L250.973 279.172L249.349 282.156L246.497 282.485L246.08 283.648L247.638 284.569L247.967 286.544L250.292 287.202L251.324 292.336L250.029 294.332L251.236 295.407H253.474L259.222 293.916L262.052 294.903L264.268 292.928L264.114 291.173L262.82 290.098L264.377 286.544L267.888 286.127L268.656 282.661L269.27 284.24L273.372 284.899L275.852 283.56L277.936 284.482L279.142 285.974L281.622 283.078L282.389 278.756L284.188 276.935L284.627 271.56L285.658 269.826L283.684 268.159L283.947 265.921L285.834 263.859L284.035 261.621L285.987 259.888L283.508 258.396L284.627 256.487L283.267 254.425L285.746 255.325L288.401 254.842L285.987 252.692L287.194 250.213L287.04 248.875L283.684 247.712L287.896 247.558L285.658 245.32L283.771 245.057L285.066 243.565H286.251L286.602 244.07L287.896 242.907L287.808 241.503L289.695 242.907L289.936 240.669L291.494 239.024L293.03 238.848L292.701 237.444L293.556 236.281L294.324 237.291L293.907 239.265L295.18 239.353L297.154 236.457H298.712L300.248 235.206L299.985 233.144L298.624 231.981L295.86 231.235L293.907 232.31L292.789 231.806L290.968 232.793L289.52 230.906L287.106 230.49L285.658 229.59L282.653 229.656L282.389 230.731L281.534 230.073L278.111 229.744L278.023 228.91L279.647 228.252L281.534 229.173L283.157 227.089L284.123 228.01L285.834 227.506L286.602 226.102L288.576 226.519L289.52 227.506L290.902 227.418L290.968 226.102L292.087 227.177L294.675 228.098L294.412 229.502L296.299 230.49L299.392 229.744L300.16 227.506L302.99 224.522L304.46 221.209L302.222 219.147V217.502L298.888 215.593L299.48 214.342L295.443 211.359L294.939 209.45L293.381 208.221L291.406 210.525L290.2 208.55L289.081 209.209V207.146L287.545 206.817L286.426 205.15L285.132 203.833L286.689 201.925L285.483 199.533L286.514 198.941V197.625L284.803 196.945L286.514 194.882L285.834 191.657L286.36 190.999L287.808 192.228L288.05 190.078L286.36 188.344L286.953 185.119L286.514 182.618L287.106 181.807L286.799 179.086L284.188 175.905L285.987 176.519L289.278 175.993L291.121 173.338L290.2 171.451L290.814 170.289L292.789 170.793L295.86 168.226L296.036 166.976L294.5 166.647L295.18 164.826L296.738 163.334L297.681 164.497L298.712 164.255L299.304 161.93H300.248L301.191 163.334L302.749 162.017V159.538L303.78 157.301H305.491L305.733 158.858L307.115 158.946L308.234 156.708L310.976 155.216L310.12 153.242L310.472 151.333L311.678 152.825L313.982 150.675L315.43 150.763L317.689 147.121L317.338 143.545L318.962 141.636L320.41 141.57L322.648 138.828H321.024L319.752 137.095L321.112 136.59L320.41 135.186L318.633 134.857L316.395 133.211L319.137 132.707L318.633 131.127L319.993 127.332L320.673 126.081L319.598 124.743L318.216 124.699L317.229 123.141L317.953 122.351L319.335 123.032L319.796 123.756L320.673 123.514L320.783 122.242L318.699 121.32L320.41 120.421L322.341 120.552L324.205 118.885L322.713 117.898L321.309 115.265L322.801 115.748L323.832 116.954L325.5 116.581L326.268 114.848L326.531 112.742L327.716 111.843L329.098 114.256L330.897 112.084L331.752 113.905L333.639 114.651L334.583 112.83L336.403 113.817L339.058 112.172L340.331 113.664L342.481 113.817L343.951 112.83L344.038 112.94L344.148 110.548L342.876 109.232Z" stroke="#224479" stroke-miterlimit="10" stroke-linecap="round" stroke-linejoin="round"/>
<path d="M402.989 197.405L406.016 192.205L409.198 187.642L411.567 182.201L416.152 174.698L419.421 166.888L418.697 163.575L413.783 158.134L410.843 157.191L405.6 150.082L406.499 146.857L408.627 144.027L408.386 140.802L404.963 138.52L403.735 135.997L403.559 131.983L404.459 130.951L403.471 128.889L400.685 128.428L399.215 126.607V122.987L400.773 121.013L398.557 120.464L398.469 118.578L398.952 111.469L401.014 110.987L395.946 99.6442L391.273 91.3512L390.286 88.2797L387.587 85.4496L389.474 80.25L391.756 76.6959L392.831 73.4708L391.427 72.2203L386.271 69.061L385.372 66.9988L383.638 64.4758L380.545 62.8084L378.987 62.5671L377.035 57.5869L375.477 55.7879L376.289 52.0802L376.793 49.1623L374.972 48.5699L376.815 47.3413L379.799 46.2005V46.1127L379.382 41.6591L381.379 38.6095L381.752 36.3498L379.492 34.0462L378.834 32.2691L375.06 31.8742L372.603 30.9967L371.001 29.417L368.259 26.0604L366.131 24.6562L361.304 24.744L359.418 26.7185L359.593 27.6619L357.882 28.0568L354.92 27.5083L352.551 28.5395L352.704 29.79L350.905 32.1594L349.589 32.9492L350.642 34.5947L349.918 36.3279L349.348 41.9223L350.423 45.2352L351.234 47.1219L350.423 48.548L348.448 49.8204L346.495 49.6669L344.696 51.3342L343.227 52.1241L341.91 54.4935L339.387 54.0986L335.614 51.5756L333.244 51.4878L331.687 53.0674L328.9 55.6782L323.569 55.5027L320.388 54.2521L318.589 51.8827L317.689 49.601L312.863 45.8056L311.152 43.3484L309.023 43.0413L307.466 44.2918L307.049 46.1785L307.707 47.824L306.939 48.3066L305.974 47.8679L305.513 48.526L307.378 50.6761L310.318 52.1021L314.333 56.5996L317.273 58.7277L321.682 59.0349L323.415 60.066L324.973 60.4609L327.189 62.8961L328.001 64.9584L328.988 65.112L329.8 64.8707L331.774 67.4815L333.332 67.6569L334.407 69.2366L333.573 71.2111L334.188 74.3923L333.156 76.8933L333.398 79.0653L336.403 79.2628L337.105 81.8077L336.03 83.4312L336.403 86.4369L337.676 88.2139L338.422 92.141L337.851 93.962L338.334 95.6293V99.8855L337.588 101.465L338.729 104.624L340.857 105.326L342.81 109.341L344.082 110.658L343.972 113.049L344.74 113.861L346.89 113.949L348.953 116.033H353.253L356.171 118.753L354.547 119.499L355.666 120.991L355.842 124.304L355.052 124.962L358.474 128.033L355.995 127.529L355.052 127.858L357.97 130.162L358.057 131.478L354.635 129.657L351.783 129.745L348.777 131.631L348.865 133.365L346.803 135.449V136.941L345.859 137.599L342.349 141.153L341.822 144.707L340.967 144.97L340.353 143.895L339.321 144.071L340.089 146.221L339.585 147.954L337.259 148.196L335.877 150.016L336.469 152.759L338.005 153.834L335.263 153L334.473 152.013L332.937 152.583L332.081 154.909L332.432 155.984L330.897 155.326L330.304 156.159L331.84 157.629L331.884 158.66L330.524 160.065L329.888 161.315L327.891 162.544L326.816 161.798L326.553 161.008L325.061 160.547L323.525 161.074L324.074 163.048L322.801 164.079L323.701 166.142L322.845 168.16L321.77 168.401L320.651 170.222L321.507 172.416L322.121 172.877L321.441 175.027L321.88 176.453L323.328 175.795L324.534 177.024L324.139 179.371L323.547 180.534L324.315 182.596L323.832 183.539L326.07 187.072L327.189 187.971L326.399 189.288L328.11 191.854L326.487 192.513L326.816 195.913L326.048 197.251L325.96 201.727L327.255 203.307L326.048 205.698V207.343L326.904 208.506L329.909 207.19L331.028 208.024L331.533 206.707L334.122 209.362L335.658 209.12L337.215 210.437L340.484 210.108L341.428 210.525L340.572 212.082H341.779L344.521 210.261V211.753L343.139 213.596L345.969 217.479L346.561 218.796L345.793 221.033L346.561 221.45L347.768 218.225L349.128 217.567L349.391 218.971L351.366 218.138L352.99 218.05L356.675 215.483H358.738L363.191 212.675L363.454 211.512L366.372 212.346L368.347 212.016L370.146 209.362L370.585 210.261L369.641 212.082L370.848 212.587L372.033 209.932L373.064 210.196L372.12 207.958L373.064 207.036L374.183 209.186L375.477 209.428L376.004 207.848L377.123 210.239L378.592 209.735L378.768 208.243L380.062 208.572L380.589 209.735L382.037 208.418L384.955 207.848L386.578 209.252L390.11 208.748L390.374 207.585L389.43 206.663L390.461 206.093L391.997 206.597L392.348 207.914L394.586 208.484C394.586 208.484 395.025 207.387 395.464 206.641L395.047 203.504L400.268 198.699L402.967 197.427L402.989 197.405Z" stroke="#224479" stroke-miterlimit="10" stroke-linecap="round" stroke-linejoin="round"/>
<path d="M366.502 252.077L369.222 251.441L372.074 253.503L373.544 253.349L374.027 251.441L375.672 252.625L376.484 254.205L377.954 254.293L381.486 256.421L382.627 258.944L384.755 259.975L386.466 262.344L390.481 260.765L393.86 261.225L395.549 258.79L395.22 256.728L397.019 255.236V253.02L391.798 243.872L392.609 235.666L393.926 234.789L394.715 231.673L396.493 229.479L396.8 228.799L396.668 228.426L395.571 226.671L395.264 227.681L386.181 227.417L382.144 224.938L377.932 225.026L375.716 223.951L373.83 224.433L371.504 222.459L371.328 223.951L369.88 223.71V224.609L371.153 225.684L369.091 227.022L368.06 226.342L364.045 226.189L363.255 225.201L362.662 227.351L360.6 227.088L358.362 227.746L358.033 229.589L356.563 229.238L352.965 230.73L351.671 232.792L351.759 239.769L353.207 240.01L353.996 239.44L356.037 239.593L355.006 241.173L353.382 241.327L353.558 244.157L355.444 246.965L358.626 249.773L359.744 249.532L359.92 247.711L362.136 245.978L363.013 247.557L361.807 253.262V254.49L362.992 254.073L366.502 252.077Z" stroke="#224479" stroke-miterlimit="10" stroke-linecap="round" stroke-linejoin="round"/>
<path d="M335.68 281.735L338.861 278.927L343.995 277.743L347.944 278.115L350.643 277.94L352.113 279.147L354.328 277.479L356.632 277.15L357.115 278.51L359.067 278.576L360.954 280.638L364.486 280.551L365.539 281.033L369.225 278.73L373.218 280.551L376.75 281.099L379.69 284.346L382.147 284.741L384.758 288.12L388.027 288.273L389.146 289.217L392.744 287.637L397.483 287.001L397.987 284.171L399.94 283.205L400.773 280.99L402.66 280.573L402.265 277.479L400.708 275.417L399.479 272.28L398.733 271.249L397.263 268.572L397.592 267.146L396.934 265.325L395.969 264.469L396.452 263.438L396.122 261.551L390.484 260.762L386.469 262.341L384.758 259.972L382.63 258.941L381.489 256.418L377.957 254.29L376.487 254.202L375.675 252.622L374.03 251.438L373.547 253.346L372.077 253.5L369.225 251.438L366.505 252.074L362.994 254.07L361.81 254.487V257.229L362.841 262.034L361.546 265.83L357.948 269.559H355.272L352.617 267.08L352.266 265.171L346.957 259.709L346.781 256.483L345.838 256.571L343.863 258.48L340.682 259.226L339.563 260.213L337.26 260.367L335.527 262.868L335.79 265.106L334.846 264.777L334.934 268.572L331.928 271.973L331.665 274.123L331.841 276.185L330.217 277.677L331.512 282.898L332.784 284.149L332.806 284.522L334.802 283.951L335.68 281.735Z" stroke="#224479" stroke-miterlimit="10" stroke-linecap="round" stroke-linejoin="round"/>
<path d="M355.886 307.935L357.444 308.088L358.672 312.103L358.497 314.714L359.945 316.952L362.446 315.285L366.549 314.034L369.488 315.438L372.428 314.034L374.403 313.858L373.262 310.699L376.531 310.546L377.672 307.694L379.646 307.079L380.458 308.33H382.915V305.96L379.975 304.534L380.633 301.222L382.257 300.914L384.385 297.273L388.312 295.539V293.323L386.513 292.534L389.146 289.221L388.027 288.277L384.758 288.124L382.147 284.745L379.69 284.35L376.75 281.103L373.218 280.555L369.225 278.734L365.539 281.038L364.486 280.555L360.954 280.643L359.067 278.58L357.115 278.515L356.632 277.154L354.328 277.483L352.113 279.151L350.643 277.944L347.944 278.12L343.995 277.747L338.861 278.931L335.68 281.74L334.803 283.955L332.806 284.526L333.047 287.795L333.815 290.515L332.872 292.095L333.442 292.402L337.326 291.59L340.419 295.715L343.359 297.119L347.549 296.176L349.107 296.965L349.502 299.093L350.906 299.401L352.047 300.585L350.73 302.318L351.103 306.18L353.341 305.96L355.886 307.935Z" stroke="#224479" stroke-miterlimit="10" stroke-linecap="round" stroke-linejoin="round"/>
<path d="M399.937 283.209L397.985 284.174L397.48 287.004L392.741 287.64L389.143 289.22L386.511 292.533L388.31 293.323V295.539L384.383 297.272L382.254 300.914L380.631 301.221L379.973 304.534L382.913 305.96V308.329H380.455L379.644 307.079L377.669 307.693L376.528 310.545L373.259 310.699L374.4 313.858L372.426 314.033L369.486 315.437L366.546 314.033L362.443 315.284L359.942 316.951L360.469 317.785L362.18 322.831L363.738 325.113L364.242 327.811L365.537 328.908L365.625 335.775L363.321 336.565L361.61 339.241L362.509 342.488L364.791 346.042L364.703 347.117L366.502 346.898L370.188 348.719L372.162 347.688L380.082 346.591L383.681 346.437L386.072 344.529L387.454 344.616L390.24 346.108L396.778 347.052L399.564 348.39L400.047 349.662L403.974 348.171L405.861 349.816L407.419 349.75L408.384 348.785L411.828 349.267L413.386 349.97L416.918 347.885L420.034 348.28L420.494 350.364L422.359 350.979L424.465 348.478L426.835 348.368L428.765 349.575L432.034 348.631L433.987 350.299L436.444 349.97L436.685 346.262L438.331 342.093L441.688 341.764L446.492 340.58L446.799 340.645V337.881L444.189 335.029L444.496 332.045L442.214 328.557L442.061 325.88L443.048 324.125L445.505 326.341L451.385 325.551L453.688 321.931L454.983 320.812L452.043 318.926L451.714 316.863L447.458 313.243L443.684 312.278L442.719 308.658L440.415 307.079L437.453 303.129L436.159 300.124L433.548 297.425V294.113L431.574 291.897L432.385 289.066L431.727 286.522L426.813 284.788H425.189L423.873 283.209L420.604 284.174L417.642 286.368L415.514 282.726L413.057 282.419L410.271 283.691L407.989 280.203L405.532 281.629L403.557 280.357L400.771 280.993L399.937 283.209Z" stroke="#224479" stroke-miterlimit="10" stroke-linecap="round" stroke-linejoin="round"/>
<path d="M527.802 404.006L530.259 400.233L535.744 399.904L537.784 398.412L537.367 395.647L538.771 391.632L538.267 388.473L534.998 386.257L535.744 381.54L538.113 381.058L540 378.623L539.912 375.705L538.355 374.827L537.367 372.304L535.656 373.949L532.234 373.335L529.272 371.58L526.815 371.975L524.686 370.724L521.681 370.637L517.578 369.781L516.021 371.273L514.967 369.145L511.457 367.017L508.912 361.664L507.113 361.883L503.274 364.735L500.817 364.252L498.206 364.954L495.003 363.309L492.963 365.525L487.807 360.698L486.578 357.166V354.16L484.45 353.831L484.143 351.55L481.839 349.663L475.543 350.54L472.427 346.591L473.744 344.134L471.374 342.247L469.641 337.201L467.03 337.048L464.178 338.54H458.364L452.726 336.719L450.993 338.233L451.234 340.514L448.624 341.063L446.803 340.646L446.495 340.58L441.691 341.765L438.334 342.094L436.689 346.262L436.447 349.97L433.99 350.299L432.038 348.632L428.769 349.575L426.838 348.368L424.468 348.478L422.362 350.979L420.498 350.365L420.037 348.281L416.921 347.886L413.389 349.97L411.832 349.268L408.387 348.785L407.422 349.751L405.864 349.816L403.977 348.171L400.05 349.663L399.568 348.39L396.781 347.052L390.243 346.109L387.457 344.617L386.075 344.529L383.684 346.438L380.086 346.591L372.166 347.688L370.191 348.719L366.505 346.899L364.706 347.118L364.553 348.961L364.684 353.985L366.11 355.411L367.427 358.614L370.169 360.259L369.204 361.488L369.511 363.199L370.345 364.538L369.708 367.807L367.822 367.872L366.11 369.627L365.123 372.918L358.168 380.422L358.673 383.427L358.497 386.74L356.347 386.586L354 391.391L353.517 395.099L353.035 395.406L355.733 397.863L358.585 399.662L359.375 401.659L361.613 401.571L363.083 400.233H365.299L369.379 402.514L372.561 402.602L375.588 403.94L376.663 405.673L379.033 406.77L382.631 405.673L385 405.498L386.887 403.37L394.5 402.119L397.11 400.54L399.743 400.101L399.326 397.38L399.721 396.13L399.238 393.212L401.038 393.914L401.52 393.212L403.736 394.463L404.46 393.366H406.917L407.817 392.488L409.462 395.011H412.402L415.912 398.104L419.598 398.499L420.169 397.227H421.244L424.754 400.627L427.606 402.032L428.352 405.893L428.11 408.504L430.655 409.776L431.05 410.961L433.837 413.396L437.105 415.283L437.522 417.257L437.018 419.078L438.422 420.965L438.005 422.15L434.648 422.238L432.849 420.811L429.909 421.755L427.694 421.843L427.364 425.792L427.452 428.468L426.311 428.293L424.183 432.088L424.096 434.063L422.209 433.514L420.585 434.677L422.406 437.727L425.522 438.363L429.69 438.451L431.533 437.156L435.065 436.827L436.974 438.341L436.996 438.319L437.435 436.41L436.316 435.094L436.579 433.778L436.667 432.198L437.61 433.602H439.058L443.358 428.622L442.678 427.218H443.885L446.188 424.322V421.601L447.834 420.351L450.488 420.197L452.726 417.455L453.999 418.618L453.911 419.188H455.973L456.917 417.959L457.86 416.468L458.65 417.696L460.01 418.683L461.743 419.276L465.166 418.442L462.774 419.846L461.326 420.592L459.264 419.978L455.315 420.46H452.814L453.779 421.843H457.904L461.239 422.896L460.756 423.729L459.527 424.475L461.195 425.879L462.774 426.011L464.837 427.152L467.228 425.967L469.97 425.506L472.537 426.582L474.336 427.569L475.192 426.011L476.245 426.472L476.749 429.214L478.044 430.706L477.1 431.276L473.744 431.847L469.707 434.172L467.403 437.573L469.378 438.407L470.914 437.156L473.393 438.319L474.687 438.143L478.307 440.886L478.483 442.465L477.1 446.436L476.486 447.27L478.483 448.74L482.585 448.916L486.534 447.182L491.778 443.365L495.376 443.453L497.35 440.798L500.005 439.394L504.481 440.14L508.342 439.811L509.724 438.231L508.693 436.257L509.812 435.335L510.667 433.931L507.662 433.778L504.042 434.172L503.186 436.41L501.058 435.094L499.764 435.16L497.855 437.068L496.582 436.586L491.098 430.772L490.242 427.876L488.509 425.572L487.587 426.143L488.684 428.951L492.633 433.602L496.407 437.068L495.288 437.661L492.721 436.915L491.427 435.576L490.922 433.097L489.715 432.351L488.355 433.602L488.684 431.847H487.653L486.622 432.527L486.534 431.518L487.653 430.201L486.885 429.126L485.591 429.785L484.209 428.797L482.849 427.218L479.251 427.459L477.781 426.56L478.132 425.638L480.611 426.055L481.993 424.826L483.616 425.989H486.03L486.359 424.651L488.421 424.322L491.866 420.833L492.304 419.605L493.489 420.351L493.84 421.25L491.602 423.817L490.747 424.322L491.273 425.309L492.633 424.563L495.047 421.25L495.551 419.846L494.279 418.288L493.577 416.95L494.608 416.884L496.078 419.276L497.526 419.517L499.851 418.113L502.857 418.771L504.744 417.367L507.069 417.126L507.925 417.367L510.316 414.888L511.523 413.221L514.024 413.067L514.967 411.158L516.415 410.083L519.246 410.325L522.076 409.162L523.282 409.337L523.546 410.5L525.674 409.776L525.696 409.579L526.332 404.642L527.802 404.006Z" stroke="#224479" stroke-miterlimit="10" stroke-linecap="round" stroke-linejoin="round"/>
<path d="M405.533 404.248L410.118 408.197L410.601 410.391L416.656 414.976L417.49 417.982L419.442 421.141L418.96 431.408L420.43 434.414L420.583 434.677L422.207 433.514L424.093 434.063L424.181 432.088L426.309 428.293L427.45 428.468L427.362 425.792L427.691 421.843L429.907 421.755L432.847 420.812L434.646 422.238L438.003 422.15L438.42 420.965L437.016 419.079L437.52 417.258L437.103 415.283L433.834 413.396L431.048 410.961L430.653 409.776L428.108 408.504L428.35 405.893L427.604 402.032L424.752 400.628L421.241 397.227H420.166L419.596 398.5L415.91 398.105L412.4 395.011H409.46L407.815 392.488L406.915 393.366H404.458L403.734 394.463L401.518 393.212L401.035 393.914L399.236 393.212L399.719 396.13L399.324 397.381L399.741 400.101L404.217 399.333L405.533 404.248Z" stroke="#224479" stroke-miterlimit="10" stroke-linecap="round" stroke-linejoin="round"/>
<path d="M431.533 437.159L429.691 438.453L425.522 438.366L422.407 437.729L420.432 434.417L418.962 431.411L419.445 421.143L417.492 417.984L416.659 414.979L410.603 410.393L410.121 408.199L405.536 404.25L404.219 399.336L397.111 400.543L394.5 402.122L386.887 403.373L385.001 405.501L382.631 405.676L379.033 406.773L376.664 405.676L375.589 403.943L372.561 402.605L369.38 402.517L365.299 400.235H363.083L361.613 401.574L359.376 401.661L359.661 402.364L358.498 404.799L355.8 405.281L353.43 409.538L351.061 416.229L347.068 421.999L347.134 424.127L345.093 426.014L342.066 425.795L340.991 427.681L339.038 428.23L336.778 430.468L338.863 431.17L339.564 432.552L343.206 436.698L343.952 438.651L346.892 440.143L349.898 442.315L348.582 445.057L349.02 446.198L352.772 447.405L353.847 449.204L356.216 448.26L358.015 449.84L359.902 447.405L363.829 448.194L361.942 450.235L362.272 451.902L362.952 454.228L366.023 454.491L367.493 455.676L367.34 457.343L366.506 458.528L367.756 460.502L370.521 458.747L373.548 458.923L374.777 460.173L375.918 459.866L379.845 461.292L383.114 459.778L385.33 460.414L387.216 459.625L389.498 460.414H391.473L395.707 460.897L397.111 459.954L399.963 459.076L400.95 457.497L407.664 454.491L410.603 454.03L414.114 454.337L417.821 455.829L419.028 457.058L421.178 456.268L424.14 457.606L424.623 458.703L427.321 458.835L426.531 456.202L427.738 454.228L427.913 450.981L426.97 449.401L428.418 447.931L429.01 445.606L432.981 445.342L435.373 444.86L436.996 442.051V440.384L435.812 439.485L436.974 438.344L435.066 436.83L431.533 437.159Z" stroke="#224479" stroke-miterlimit="10" stroke-linecap="round" stroke-linejoin="round"/>
<path d="M346.978 396.194L342.393 396.523L339.782 395.799L336.009 396.128L334.056 399.046L332.016 400.626L331.752 402.666L328.571 399.441L324.885 402.425L321.704 403.456L321.375 405.496L315.32 406.067L311.481 407.317L307.466 406.615L299.897 402.381L300.116 403.851L300.445 406.067L300.029 408.261L295.114 408.195L294.631 409.138L296.672 411.42L295.684 413.943L295.443 416.005L296.672 418.046L294.895 420.196L294.39 420.349L297.242 423.508L297.681 427.106L299.699 427.523L304.35 431.779L306.742 432.635L308.519 433.995L314.421 434.939L318.589 436.343L320.388 434.149L321.617 434.785L323.196 433.118L325.807 431.823L327.694 432.087L328.374 431.055L331.072 428.861L332.806 429.41L335.175 429.937L336.777 430.463L339.036 428.225L340.989 427.677L342.064 425.79L345.091 426.009L347.132 424.123L347.066 421.995L351.059 416.225L353.428 409.533L355.798 405.277L358.496 404.794L359.659 402.359L358.584 399.66L355.732 397.861L353.033 395.404L350.489 396.984L346.978 396.194Z" stroke="#224479" stroke-miterlimit="10" stroke-linecap="round" stroke-linejoin="round"/>
<path d="M351.322 383.911L347.066 383.736L345.618 384.372L343.863 383.582L342.02 383.823L340.594 385.249L338.992 384.174H336.294L334.517 383.977L332.718 384.569L331.358 386.544L329.23 386.632L328.615 386.302L328.659 386.412L323.416 385.951L320.958 388.08L318.106 388.321L314.925 391.392L310.735 391.941L306.391 393.433L305.338 392.577L302.727 392.643L300.029 394.398L299.458 394.266L299.217 397.755L299.897 402.384L307.466 406.618L311.481 407.32L315.32 406.07L321.375 405.499L321.704 403.459L324.885 402.428L328.571 399.444L331.752 402.669L332.016 400.629L334.056 399.049L336.009 396.131L339.782 395.802L342.393 396.526L346.978 396.197L350.489 396.987L353.516 395.1L353.999 391.392L356.346 386.588H356.039L351.322 383.911Z" stroke="#224479" stroke-miterlimit="10" stroke-linecap="round" stroke-linejoin="round"/>
<path d="M331.097 479.829L333.488 477.065L334.3 477.218L335.682 479.193L337.656 476.823L337.985 475.639L339.697 474.213L339.521 471.777L336.669 471.295L334.87 469.649H332.325L331.272 468.465V466.731L328.859 464.472L328.661 464.669L326.862 464.121L324.471 462.541L323.089 463.484L323.177 465.152L325.217 466.402L325.941 467.982L324.252 468.859L322.606 469.013L321.707 471.207L321.619 474.147L320.303 476.516L319.228 477.065L319.995 478.074L322.233 478.973L326.489 484.107L326.818 485.775L329.341 486.981L329.561 482.966L331.097 479.829Z" stroke="#224479" stroke-miterlimit="10" stroke-linecap="round" stroke-linejoin="round"/>
<path d="M310.732 471.62L302.812 463.02L293.641 455.275L293.312 454.025L294.058 453.235L292.566 451.414L292.172 449.593L289.868 447.07L288.42 447.158L288.332 445.578L289.232 444.723V441.87L290.131 440.839L292.83 442.814L293.729 444.328L295.199 443.999L295.287 442.507L297.327 442.178L298.709 442.265L299.872 441.081L301.649 442.112L302.637 441.234L304.436 441.629L305.423 443.45L306.893 442.419L309.416 443.297L311.237 442.573L311.785 443.297L314.571 442.967L316.963 443.845L318.433 443.604L320.714 445.425L323.896 445.512L324.181 445.842L323.896 444.086L326.111 443.297H327.164V442.419L325.058 441.958L323.896 441.015L323.259 438.163L321.855 434.938L320.385 434.148L318.586 436.342L314.418 434.938L308.516 433.994L306.739 432.634L304.348 431.779L299.697 427.522L297.678 427.105L297.744 427.61H292.83L285.941 431.098L285.436 433.929L281.838 435.684L281.18 439.479L278.898 439.633L274.642 437.724L272.339 438.36L269.399 440.423L265.406 440.642L265.384 440.883L266.086 445.183L268.653 447.509L268.389 448.343L269.421 449.154L272.163 444.854L272.602 442.529L274.335 440.642L277.077 440.554L277.67 442.704L279.907 444.437L280.588 447.684L282.211 450.734L285.656 453.805L286.511 453.959L288.486 456.043L286.774 455.451L284.8 455.714L283.944 457.535L284.954 459.422H287.455L289.934 461.747L292.435 462.581L293.29 464.49L294.497 465.806L297.064 465.302L302.066 465.696L304.808 467.035L310.315 472.498L308.758 472.673L306.191 471.335L307.551 473.002L309.92 473.529V473.507L310.732 471.62Z" stroke="#224479" stroke-miterlimit="10" stroke-linecap="round" stroke-linejoin="round"/>
<path d="M321.619 474.149L321.706 471.209L322.606 469.016L324.251 468.862L325.941 467.984L325.217 466.405L323.176 465.154L323.089 463.487L324.471 462.543L326.862 464.123L328.661 464.672L329.626 463.728L327.103 460.898V458.529L328.157 457.805L330.131 458.836L330.943 457.585L329.626 456.247L327.915 456.159L324.646 453.636L324.558 452.144L326.862 448.81L327.169 445.979L325.787 445.914L324.8 446.616L323.9 445.519L320.719 445.431L318.437 443.61L316.967 443.851L314.576 442.974L311.79 443.303L311.241 442.579L309.42 443.303L306.897 442.425L305.427 443.456L304.44 441.635L302.641 441.241L301.654 442.118L299.877 441.087L298.714 442.272L297.332 442.184L295.292 442.513L295.204 444.005L293.734 444.334L292.834 442.82L290.136 440.846L289.236 441.877V444.729L288.337 445.584L288.425 447.164L289.873 447.076L292.176 449.599L292.571 451.42L294.063 453.241L293.317 454.031L293.646 455.282L302.817 463.026L310.737 471.626L309.925 473.513V473.535L311.351 473.842L315.629 474.5L316.814 473.93L319.227 477.067L320.302 476.519L321.619 474.149Z" stroke="#224479" stroke-miterlimit="10" stroke-linecap="round" stroke-linejoin="round"/>
<path d="M272.341 438.364L274.644 437.727L278.9 439.636L281.182 439.482L281.84 435.687L285.438 433.932L285.943 431.102L292.832 427.613H297.746L297.241 423.511L294.389 420.352L291.625 421.229L286.667 423.906L285.482 423.796L283.837 423.993L281.248 425.134H278.791L276.092 426.165L274.622 424.476L269.532 424.498L267.733 424.323L265.144 427.943L265.956 429.676L264.486 431.892L265.035 435.621L265.232 435.665L267.448 436.652L267.382 438.144L265.474 438.649L265.408 440.645L269.401 440.426L272.341 438.364Z" stroke="#224479" stroke-miterlimit="10" stroke-linecap="round" stroke-linejoin="round"/>
<path d="M296.672 418.045L295.444 416.004L295.685 413.942L296.672 411.419L294.632 409.137L295.115 408.194L300.029 408.26L300.446 406.066L300.117 403.85L299.897 402.38L299.217 397.751L299.458 394.263L295.027 393.275L293.074 391.849L290.047 392.486L286.865 392.332L284.079 390.445L279.911 390.292L277.607 389.414L276.708 391.454L275.567 392.486L275.413 394.153L272.298 394.306L271.245 395.491L265.519 392.332L263.917 392.178L263.522 394.153L263.632 396.325H261.833L260.516 398.497L257.906 399.747L254.878 403.455V404.881L257.664 406.219L257.993 408.26L256.853 409.05L254.308 407.645L251.763 408.347L249.152 407.645L247.353 407.865L243.755 410.168L241.802 410.563L240.003 409.993L238.029 410.476L236.405 409.444L233.29 408.984L230.262 409.379L230.504 410.871L229.78 411.748L226.906 411.024L225.348 409.379L223.33 410.103L222.013 410.739H221.421L222.825 411.66L222.671 413.196L223.966 414.183L223.9 416.224L225.677 416.311L227.081 415.763L229.451 417.979L231.403 416.224H233.202L234.124 418.045L234.168 417.979L237.941 419.558L243.843 416.246L246.3 416.882L250.227 416.575L249.898 418.769L255.47 421.928L262.359 423.2L266.111 422.871L267.756 424.297L267.734 424.319L269.533 424.495L274.623 424.473L276.093 426.162L278.792 425.131H281.249L283.838 423.99L285.483 423.793L286.668 423.902L291.626 421.226L294.39 420.348L294.895 420.195L296.672 418.045Z" stroke="#224479" stroke-miterlimit="10" stroke-linecap="round" stroke-linejoin="round"/>
<path d="M269.183 330.248L266.001 331.828V333.319L269.512 336.961L269.117 339.177L270.762 341.217V342.885L271.728 345.167L270.828 347.053L272.868 351.551L274.382 352.363L275.742 354.052L275.896 359.866L275.26 360.831L276.093 362.564L277.081 361.467L279.055 361.818L280.152 361.248L284.781 361.928L284.628 363.2L286.58 365.131L288.423 364.89L290.113 366.294L289.016 368.707L289.915 370.002L290.727 370.44L290.617 372.547L292.175 373.161L293.25 372.064H294.698L292.087 368.751L293.162 368.049L298.471 370.879L301.828 370.484L301.258 372.393L303.715 374.28L307.949 373.336L311.306 374.346L318.173 379.172L320.301 382.704L322.253 382.792L323.263 381.695L326.29 381.761L328.001 383.494L328.616 386.302L329.23 386.631L331.358 386.544L332.718 384.569L334.517 383.977L336.294 384.174H338.993L340.595 385.249L342.021 383.823L343.863 383.582L345.619 384.372L347.067 383.735L351.323 383.911L356.04 386.588L358.497 386.741L358.672 383.428L358.168 380.423L365.122 372.919L366.11 369.629L367.821 367.874L369.708 367.808L370.344 364.539L369.51 363.2L369.203 361.489L370.168 360.261L367.426 358.615L366.11 355.412L364.684 353.986L364.552 348.962L364.706 347.119L364.793 346.044L362.512 342.49L361.612 339.243L363.323 336.566L365.627 335.777L365.539 328.91L364.245 327.813L363.74 325.114L362.183 322.832L360.471 317.786L358.497 314.715L358.672 312.104L357.444 308.089L355.886 307.936L353.341 305.961L351.103 306.181L338.379 307.387L323.965 306.598L322.648 307.08L318.787 310.393L315.518 311.139L314.684 310.393L317.931 308.66L320.937 305.676L319.906 305.742L317.515 308.067L313.302 309.976L308.41 308.66L307.379 306.093L308.147 304.272L310.735 304.601L311.92 305.347L312.008 304.601L308.827 303.109L303.079 301.705L298.625 303.943L295.356 303.68L291.999 304.93L289.937 307.673L286.69 307.738L284.628 309.976V311.709L281.118 311.797L275.786 314.605L272.166 314.869L270.894 317.523L270.038 320.156L269.27 320.573L269.424 321.648L268.305 321.714L269.512 326.628L269.183 330.248Z" stroke="#224479" stroke-miterlimit="10" stroke-linecap="round" stroke-linejoin="round"/>
<path d="M271.241 395.497L272.294 394.312L275.41 394.158L275.563 392.491L276.704 391.46L277.604 389.42L279.907 390.297L284.076 390.451L286.862 392.337L290.043 392.491L293.071 391.855L295.023 393.281L299.455 394.268L300.026 394.4L302.724 392.645L305.335 392.579L306.388 393.434L310.732 391.943L314.922 391.394L318.103 388.323L320.955 388.081L323.413 385.953L328.656 386.414L327.998 383.496L326.287 381.763L323.259 381.697L322.25 382.794L320.297 382.706L318.169 379.174L311.302 374.347L307.946 373.338L303.711 374.282L301.254 372.395L301.825 370.486L298.468 370.881L293.159 368.051L292.084 368.753L294.694 372.066H293.246L292.171 373.163L290.614 372.548L290.723 370.442L289.912 370.003L289.012 368.709L290.109 366.296L288.42 364.892L286.577 365.133L284.624 363.202L284.778 361.93L280.149 361.25L279.052 361.82L277.077 361.469L276.09 362.566L275.256 360.833L274.817 361.491L273.194 360.701L271.724 361.666L268.214 360.877V362.829L266.327 363.948L264.682 363.553L260.93 363.619L259.701 365.44L257.244 365.528L255.028 367.963L253.076 368.117L249.061 371.671L247.196 370.793L246.099 369.938L245.112 370.64L245.243 372.263L248.227 373.996L250.597 377.572L250.443 380.227L251.057 381.851L253.273 383.035L257.178 385.602L259.372 387.028L263.936 392.096L263.914 392.184L265.515 392.337L271.241 395.497Z" stroke="#224479" stroke-miterlimit="10" stroke-linecap="round" stroke-linejoin="round"/>
<path d="M195.62 331.368L195.466 332.596L194.567 334.505L194.523 336.655L193.053 337.84L190.684 336.809L189.696 338.937L190.026 340.341L192.79 340.275L193.953 341.306L193.294 342.645L192.965 345.014L191.495 346.045L192.724 348.085L191.079 348.963L188.226 348.327L185.199 349.029L183.817 351.245L182.347 352.978L183.005 356.159L182.259 359.801L181.316 362.192L181.601 362.28L180.855 363.86L182.566 367.26L182.5 368.599L183.883 370.639L182.566 373.645H183.312L186.011 376.87L186.493 379.239L187.722 380.27L187.524 383.758L187.568 383.737L189.696 385.316V386.654L191.649 388.234L193.536 387.62H195.51L196.98 388.146L199.021 387.532L201.719 388.717H203.847L206.063 390.121L203.518 392.644L202.29 395.979V397.624L200.732 399.05L199.591 402.824L199.745 405.983L201.719 407.168L202.772 409.296L202.706 409.318L204.571 409.844L206.633 408.747L209.398 409.691L210.232 408.352L209.968 407.014L212.272 406.224L213.084 408.352L214.466 408.747L215.606 407.716L217.164 407.804L220.28 409.998L221.42 410.744H222.013L223.329 410.107L225.347 409.383L226.905 411.029L229.779 411.753L230.503 410.875L230.262 409.383L233.289 408.989L236.405 409.449L238.028 410.48L240.003 409.998L241.802 410.568L243.754 410.173L247.352 407.87L249.152 407.65L251.762 408.352L254.307 407.65L256.852 409.054L257.993 408.265L257.664 406.224L254.878 404.886V403.46L257.905 399.752L260.516 398.502L261.832 396.33H263.631L263.522 394.158L263.917 392.183L263.938 392.095L259.375 387.027L257.181 385.601L253.276 383.035L251.06 381.85L250.446 380.226L250.599 377.572L248.23 373.996L245.246 372.262L245.115 370.639L246.102 369.937L247.199 370.792L249.064 371.67L253.079 368.116L255.031 367.962L257.247 365.527L259.704 365.439L260.933 363.618L264.684 363.553L266.33 363.947L268.217 362.829V360.876L271.727 361.666L273.197 360.7L274.82 361.49L275.259 360.832L275.895 359.867L275.742 354.053L274.382 352.364L272.868 351.552L270.827 347.054L271.727 345.168L270.762 342.886V341.219L269.116 339.178L269.511 336.962L266.001 333.32V331.829L269.182 330.249L269.511 326.629L268.304 321.715L266.264 321.824L264.882 320.662L262.995 320.903L260.933 319.323L261.372 317.261L260.077 315.352L257.752 315.769L254.922 313.049L252.947 312.72L252.179 311.557L251.148 312.039L248.647 312.303L246.343 313.882L245.488 313.049L246.65 311.908L247.045 312.193L247.901 311.315L250.248 310.416L247.309 310.109L246.299 310.613L246.058 311.732L243.776 312.851L243.667 313.838L239.498 314.453L237.919 316.559L237.546 318.139L235.176 318.336L234.452 317.129L232.39 316.932L231.381 317.393L228.507 316.559L230.525 315.243L231.885 315.44L233.377 313.707L233.333 311.864L232.434 311.359L230.635 312.72L230.042 313.509L227.168 311.513L226.313 310.372L225.238 310.986L224.646 312.149L222.89 313.378L222.21 311.557L220.411 311.052L219.819 309.824L220.916 308.727L222.144 306.248L219.885 306.006L217.713 303.725L215.694 304.076L214.466 303.527L210.297 302.408L207.314 302.562L207.445 303.022L207.27 304.843L208.827 305.831L210.034 305.918L209.858 307.498L212.338 309.736L210.275 310.482H208.389L208.476 312.39L210.451 311.557V314.124L212.513 315.352L210.714 316.691V318.27L212.25 319.17L215.014 319.323L218.568 322.921L223.241 324.808L218.327 323.887L214.751 320.091L212.338 320.991L210.539 320.091L208.74 320.42L207.357 322.57L207.796 324.391L207.884 327.528L208.915 329.613L206.414 326.87L206.59 324.391L204.966 322.987L203.935 323.404V324.962L204.966 326.87L203.847 328.033L201.96 325.883V323.404L199.459 321.649L198.011 322.307L192.943 323.645L192.505 325.795L193.536 327.704L196.037 328.121L196.541 330.183L196.322 330.117L196.278 330.578L195.62 331.368Z" stroke="#224479" stroke-miterlimit="10" stroke-linecap="round" stroke-linejoin="round"/>
<path d="M221.992 414.89L222.738 416.163L223.901 416.229L223.967 414.188L222.672 413.201L222.65 413.486L221.992 414.89Z" stroke="#224479" stroke-miterlimit="10" stroke-linecap="round" stroke-linejoin="round"/>
<path d="M233.2 416.227H231.401L229.449 417.982L227.079 415.766L225.675 416.315L223.898 416.227L222.735 416.161L221.989 414.889L222.647 413.485L222.823 411.664L220.278 409.996L217.163 407.802L215.605 407.715L214.464 408.746L213.082 408.351L212.27 406.223L209.967 407.012L210.23 408.351L209.396 409.689L206.632 408.746L204.57 409.843L202.705 409.316L199.085 410.391L197.045 410.172L196.386 408.746L193.776 408.899L192.306 410.632L194.675 411.817L195.092 413.879L193.052 414.735L190.836 417.499L189.125 418.136L186.185 422.633L185.68 425.946L185.724 428.074L184.364 427.986L183.069 428.623L183.311 430.356L185.768 430.597L188.554 429.5L187.479 426.802L189.037 425.463L192.393 425.617L193.534 427.679L194.346 430.356L195.662 431.387L196.013 433.23L198.471 434.107L202.88 430.948L205.842 432.199L209.923 425.419L212.556 426.999L212.226 429.522L215.824 431.255L216.965 433.471L219.269 429.522V426.516L224.183 427.789L226.158 427.613L228.11 429.193L228.615 425.09L233.025 424.147L231.884 420.681L234.122 418.048L233.2 416.227Z" stroke="#224479" stroke-miterlimit="10" stroke-linecap="round" stroke-linejoin="round"/>
<path d="M158.281 358.568H160.014L161.155 359.753L162.384 358.568L164.512 358.173L164.995 357.471L166.618 357.317L167.276 355.738L171.138 355.804L172.432 357.076H174.406L175.459 358.568L178.487 358.414L179.518 360.235L179.387 361.618L181.317 362.188L182.261 359.797L183.007 356.155L182.348 352.974L183.818 351.24L185.2 349.024L188.228 348.322L191.08 348.959L192.726 348.081L191.497 346.041L192.967 345.01L193.296 342.64L193.954 341.302L192.791 340.271L190.027 340.337L189.698 338.932L190.685 336.804L193.055 337.836L194.525 336.651L194.569 334.501L195.468 332.592L195.622 331.363L196.28 330.574L196.324 330.113L194.152 329.433L192.44 327.941L189.259 326.361L185.903 326.866L183.928 328.533L182.041 327.787L180.835 328.533L178.092 328.599L175.525 331.342L171.401 333.492L170.545 332.899L168.132 333.821L168.044 336.475L165.806 338.121L166.508 340.688L165.982 343.013L165.038 344.922L164.271 346.238L162.559 347.489L162.647 349.134L165.214 351.372L167.539 352.03H164.951L163.766 353.039L162.976 353.698L164.007 354.926L165.302 355.102L165.39 356.177L163.327 356.264L161.44 354.356L159.466 353.434L157.579 354.202L158.259 355.189L160.058 355.343L161.704 356.835L162.296 356.593L164.446 357.998L162.384 357.252L161.089 357.339L157.996 356.352H156.021L155.956 356.396L157.228 356.988L158.281 358.568Z" stroke="#224479" stroke-miterlimit="10" stroke-linecap="round" stroke-linejoin="round"/>
<path d="M153.868 365.593L156.479 366.536L156.895 368.357L160.077 370.88L161.481 370.792L162.863 371.911L164.421 372.613L164.574 375.619L166.965 376.804L168.194 376.014H169.576L170.542 377.111L172.033 377.418L174.644 380.577L176.926 380.731L178.966 382.157L179.953 381.543H181.599V380.358L180.699 379.568V378.054L179.953 377.111L181.182 375.531L181.84 373.645H182.564L183.881 370.639L182.498 368.598L182.564 367.26L180.853 363.86L181.599 362.28L181.314 362.192L179.383 361.622L179.515 360.24L178.484 358.419L175.456 358.572L174.403 357.08H172.428L171.134 355.808L167.273 355.742L166.615 357.322L164.991 357.475L164.508 358.177L162.38 358.572L161.152 359.757L160.011 358.572H158.278L157.224 356.993L155.952 356.4L153.626 358.177L152.069 360.876L153.385 361.819L153.868 365.593Z" stroke="#224479" stroke-miterlimit="10" stroke-linecap="round" stroke-linejoin="round"/>
<path d="M187.721 380.264L186.492 379.233L186.009 376.864L183.311 373.639H182.565H181.841L181.183 375.525L179.954 377.105L180.7 378.048V379.562L181.6 380.352V381.537H181.753L183.07 383.577L185.944 384.126L187.523 383.753L187.721 380.264Z" stroke="#224479" stroke-miterlimit="10" stroke-linecap="round" stroke-linejoin="round"/>
<path d="M202.727 455.435H199.283L195.685 453.065L195.18 447.383L192.394 444.531L194.039 442.798L196.65 442.491L197.308 438.849L195.18 436.94L194.851 434.263L195.838 433.166L196.014 433.232L195.663 431.389L194.346 430.358L193.535 427.682L192.394 425.619L189.037 425.466L187.479 426.804L188.554 429.503L185.768 430.6L183.311 430.358L183.07 428.625L184.364 427.989L185.724 428.077L185.68 425.948L186.185 422.636L189.125 418.138L190.836 417.502L193.052 414.738L195.092 413.882L194.675 411.82L192.306 410.635L193.776 408.902L196.387 408.748L197.045 410.174L199.085 410.394L202.771 409.297L201.718 407.169L199.743 405.984L199.59 402.825L200.731 399.051L202.288 397.625V395.98L203.517 392.645L206.062 390.122L203.846 388.718H201.718L199.019 387.533L196.979 388.147L195.509 387.621H193.535L191.648 388.235L189.695 386.655V385.317L187.567 383.737L185.944 384.132L183.07 383.584L181.753 381.544H181.6H179.954L178.967 382.158L176.927 380.732L174.645 380.578L172.034 377.419L170.542 377.112L169.577 376.015H168.195L166.966 376.805L164.575 375.62L164.421 372.614L162.864 371.912L161.481 370.793L160.077 370.881L156.896 368.358L156.479 366.537L153.869 365.594L153.386 361.82L152.07 360.877L151.74 361.491L147.704 362.808L146.76 362.062L143.491 363.883L142.724 366.033L143.228 368.6L142.548 372.658L139.279 375.73V377.046L135.681 378.033L133.794 378.121L131.732 377.463L127.432 379.701L126.401 381.609L127.169 382.926L129.165 383.584L126.489 385.405L123.242 386.063L118.766 385.493L116.791 384.505L115.168 385.405L114.466 383.913L113.018 382.838L113.698 381.105L111.899 380.271L110.012 380.951L107.358 380.863L106.151 380.359L106.919 382.838L106.502 383.913L110.276 387.314L109.574 388.389L110.1 390.056L109.661 391.701L110.868 393.193L111.131 395.102L107.182 394.597L105.471 395.19L103.825 394.773L101.851 395.256L101.083 394.532L98.604 396.506L95.4228 392.447L93.6237 391.877L90.9472 392.447L88.7971 394.356L87.7001 393.786L86.4058 394.926L85.2869 394.181L82.9614 394.444L81.5133 395.848L78.0688 396.089L76.5332 397.822L77.3887 399.227L79.3633 398.568L81.3379 399.161L81.8644 399.907L79.7143 399.49L78.4199 399.643L79.1878 401.728L79.8679 400.148L81.25 400.653L81.6011 402.057L80.3067 402.561L78.2444 403.307L78.3322 403.878H80.3067L81.1623 406.203L80.921 407.52L83.2246 406.028L84.8481 406.445L86.2303 406.203L89.8283 407.607L90.6181 408.836H92.066L94.5671 410.415L96.3661 408.836L97.4851 409.099L97.0462 410.328L97.6606 411.074L99.5473 409.999L100.644 411.074L99.7886 413.224L100.82 414.803L102.202 414.891L104.352 413.553L106.656 413.816L108.125 415.725L106.326 414.716L104.264 414.803L102.97 416.537L104.176 417.041L104.593 419.191L103.562 421.012L104.001 422.416L105.888 422.679L108.718 426.058L111.46 426.475L114.137 427.967L114.049 429.876L115.08 431.433L114.225 433.605L113.698 433.847L113.193 435.755L115.08 436.172L118.503 438.739L121.179 444.948L118.261 442.205L117.472 439.551L115.168 438.41L114.049 439.156L112.93 444.619L113.018 448.59L114.817 449.752L113.347 450.827L112.755 458.265L110.692 464.737L108.082 466.229L110.034 467.282L110.276 467.83L111.658 468.072L112.074 470.353L111.745 472.086L115.102 471.692L119.6 473.425L121.728 475.641L124.009 474.609L126.554 477.132L129.67 477.067L131.205 477.834L133.18 475.882L138.336 475.728L140.288 476.738L143.404 476.43L146.673 478.164L151.982 477.681L155.755 479.897L157.181 480.357L157.05 479.304L156.194 476.167L157.05 472.437L157.313 470.616L159.88 468.379L163.829 464.32L165.123 464.232L166.418 465.132L168.985 465.483L171.727 467.04H173.614L175.347 465.724L176.971 465.571L183.837 469.695L185.724 471.275L190.792 471.516L192.942 469.783L192.503 468.708L194.478 466.294L201.608 461.183L202.025 461.095L201.235 458.747L202.727 455.435Z" stroke="#224479" stroke-miterlimit="10" stroke-linecap="round" stroke-linejoin="round"/>
<path d="M29.8791 288.653L29.3885 289.635L27.5027 289.687L27.7094 290.694L25.0746 291.34L25.7721 293.38L28.6651 293.355L28.2261 294.104L30.5249 293.355L32.1007 293.406L29.0784 296.48L25.2813 297.875L26.5987 299.063L22.8532 299.709L20.89 298.882L19.211 300.716L18.4103 298.34L12.2882 297.488V298.521L8.9043 297.643L8.28438 301.207L9.96347 299.58L10.3251 301.75L11.0742 302.137L11.8749 304.281L10.3767 304.333L10.1184 303.093L6.83785 303.196L10.6092 305.805L13.2441 305.159L14.0964 307.174L10.7642 307.82L10.3251 309.267L11.2809 310.558L7.53534 310.61L8.38781 312.805L7.0704 313.296L9.05928 314.484L10.661 313.916L9.70506 315.13L12.7533 314.51L13.554 317.687L20.7867 317.61L18.4618 319.883L16.7829 318.902L14.0448 323.267L15.2588 323.112L13.0374 326.108L8.38781 329.182H10.2476L12.779 327.607L14.3548 328.485L17.5061 328.562L19.6243 326.522L19.831 327.477L22.4399 327.71L16.5245 329.26L12.1332 329.441L11.0742 331.068L8.18112 331.946L9.18857 333.289L8.54279 334.529L9.80849 334.891L7.66446 335.278L5.85626 333.806L5.15892 334.814L4.53885 334.116L1 335.898L1.36167 336.854L9.55008 336.363L6.83785 338.611L3.37657 339.36L2.21414 342.098L4.40972 342.072L4.90052 343.622L11.1259 341.659L6.42462 344.603L4.46143 346.179H7.79359L12.0816 343.88L11.8749 345.508L8.18112 347.161H10.2217L9.60179 348.401L12.8824 347.6L14.5872 348.736L19.0561 348.246L23.3181 347.032L26.6502 344.836L25.5395 342.356L28.0711 342.537L27.3736 344.035L30.0084 344.009L32.4365 341.53L34.2704 341.633L34.8647 339.231L42.3814 338.404L42.9755 336.828L44.0862 338.688L45.7136 337.216L47.2377 337.81L51.0865 337.784L48.4517 334.503L50.389 333.703L52.4298 331.326L52.0164 329.234L54.1346 326.935L54.8579 324.352L53.8246 318.592L52.1972 317.61L54.1346 316.422V313.839L52.4298 311.256L52.9206 308.672L50.9057 307.303L51.9131 305.805L53.4888 306.012L50.6216 304.178L48.7101 303.79L46.1787 298.96L42.3297 297.1L40.7799 298.211L40.0309 301.75L38.0936 302.111L32.4881 297.1L35.3812 291.34L38.0936 290.952L38.8685 288.731L40.6249 287.801L41.9165 286.484L40.7024 286.716L43.363 284.675L45.7395 283.384L42.924 281.911L40.9608 280.232L41.8648 282.015H39.1267L39.5916 284.934L37.6543 287.62L37.9127 285.838L38.9717 284.598L37.6543 282.376L35.8978 282.738L36.957 284.159L34.8904 284.262L33.7796 283.177L30.1375 284.081L30.0858 285.786L28.9234 285.812L28.0711 287.904L29.8791 288.653Z" stroke="#224479" stroke-miterlimit="10" stroke-linecap="round" stroke-linejoin="round"/>
<path d="M58.706 241.744L59.0935 244.56L59.0418 245.49L62.3739 244.999L60.2042 246.032L59.9717 246.626L60.6692 247.039L62.7873 246.29L62.2965 246.807L63.1488 247.84L61.5732 247.22L60.9533 247.634L60.5142 249.003L61.3665 249.597L60.1008 249.803L59.3 250.992L60.7466 251.457L61.0824 252.541L58.6801 251.663L58.241 253.213L59.1968 253.833L58.6284 254.84L57.5177 255.641L55.1671 255.693L54.1597 256.726L55.038 257.243L57.0269 257.139L58.3701 257.501L58.0602 258.069H56.5361L58.6027 259.955L59.2485 259.697L60.3075 260.807L65.7319 255.512L64.8538 257.114L65.6804 257.604L64.053 258.147L62.7356 261.195L62.8906 261.918L61.2115 264.992L61.9348 265.379L60.5142 269.073L60.8757 271.424L59.8684 272.845L60.6174 274.007L61.5732 273.568L59.8684 276.203L59.5584 279.871L58.2926 281.059L58.396 281.937H61.2115L60.8241 280.052L62.0381 277.313L61.9348 275.634L63.4072 273.904L62.2965 269.357H63.3555L66.6877 265.483L64.1563 269.151L63.8463 271.811L64.8279 272.509L65.0088 270.933L66.6877 269.59L67.4369 272.044L68.8058 269.073L68.4959 267.007L69.6066 266.439L69.1675 269.125L71.9832 271.191L69.555 270.571L68.7026 273.981L69.2451 276.513L70.7175 276.849L71.5956 279.07L69.4259 281.214L67.2043 286.768L67.721 289.247L65.7837 288.059L65.8869 290.746L68.5476 294.31L67.721 291.03L69.555 290.539L74.2046 293.794L74.3079 291.211L72.3964 289.712L73.6105 289.428L77.3559 291.701L79.9907 291.288V290.203L82.4189 290.281L83.1422 288.111L89.7291 288.369L85.3637 289.48L82.7288 296.738L85.9836 302.395L87.5851 301.491V304.462L89.7291 301.982L92.3638 302.37L91.4598 305.443L92.2605 305.934L89.6257 307.923L90.4523 311.385L89.0316 314.019L90.659 316.034L92.5705 317.662L94.1461 317.817L93.0613 318.566L91.3048 318.669L89.7807 316.603L88.3084 317.145L89.5224 319.16L90.8398 319.961L88.7734 319.521L87.1202 317.894L82.858 319.186L80.9465 318.902L76.5295 320.994L74.2563 324.068L71.079 326.031L69.71 327.917L71.7248 327.555L72.7581 327.891L73.0422 326.754L77.5626 325.592L77.1494 327.891L78.7251 329.466L77.046 330.655L78.0017 332.385L79.0609 332.618L76.1419 338.042L74.0238 338.74L71.8798 340.29L70.8207 340.341L68.1085 341.969L66.1195 341.995L62.9423 343.983L65.4737 344.319L65.6287 346.102L63.7946 346.954L67.0494 347.471L66.2227 348.22L67.4886 348.917L69.3225 348.401L71.4407 347.161L74.8762 346.076L75.1862 347.6L77.8984 348.246L75.677 348.84L75.4186 350.08L79.1641 350.157V349.46L81.0499 348.969L82.9614 351.087L84.692 353.05L88.9799 352.998L89.9874 351.345L92.0023 350.493L94.7919 349.511L95.8511 348.013L98.1758 346.954L94.9986 350.545L91.8214 353.464L91.6664 356.951L89.4966 356.847L87.7659 357.441L85.8027 356.408L80.2233 355.84L76.2969 356.847L76.3486 358.785L74.6696 360.335H72.4997L72.1382 364.752L69.8133 366.792L69.2192 367.929L66.6361 368.394L65.9645 370.899L64.8538 370.925L64.2597 372.243L61.1341 374.438L59.7134 373.948L57.5435 375.446V377.383L59.9199 377.512L59.9975 375.782L62.8906 376.531L64.0789 378.545L65.4996 377.254L64.8796 376.272L66.197 374.567L66.8428 375.368L68.4443 373.87H69.5033L70.33 371.984L72.8098 372.604L74.7213 371.752L76.2969 372.01L77.4076 371.416L78.5184 372.837L79.8358 372.733L81.644 374.206L83.7621 374.103L83.3746 372.785L85.0278 372.01L85.4928 370.796L85.0278 368.549L86.5002 367.154L87.7142 366.999L88.2309 366.121L92.958 365.062L95.4377 365.242L98.3308 367.18L99.3899 366.767L102.516 366.896L104.194 367.49L104.995 365.552L107.888 364.158L109.851 364.7L112.641 362.892L114.604 363.331L115.612 363.176L116.981 362.194L117.394 363.176L119.073 364.106L120.985 362.866L125.324 362.788L128.062 362.246L130.697 363.073L131.989 363.305L133.978 361.781L136.147 361.368L138.059 359.611L139.376 359.534L140.746 359.818L140.436 358.397L143.535 356.331L145.447 355.943L145.602 354.058L145.059 352.714L145.653 351.19L142.166 351.294L139.686 352.198L138.24 352.43L135.941 351.629L135.088 351.423L135.889 350.7L136.587 350.596L136.819 350.157L134.701 349.64L132.893 350.286L135.424 348.581L137.129 348.736L139.17 347.806L138.576 346.102H136.561L138.059 344.836L139.17 343.777L140.384 344.758L142.269 343.467L143.019 342.33L142.114 342.124L142.709 341.245L140.539 341.013L141.417 339.618L142.76 339.954L143.174 340.935L144.749 338.946L146.273 338.352L146.506 334.633L147.926 331.145L146.816 329.751L146.196 326.573L141.753 323.215L135.553 322.957L131.705 323.06L131.395 325.85L130.387 327.426L128.347 325.256L125.918 324.688L129.793 320.994V318.695L126.745 313.942L125.531 313.735L122.845 312.237L121.734 310.429L120.365 310.687L119.409 310.971L117.807 310.429H116.826L118.66 309.99L119.822 310.274L121.785 309.886L123 310.403L124.059 311.462L125.428 311.204L126.745 311.488L123.155 307.2L121.475 305.133L122.535 303.48L123.516 303.145L121.734 302.189L120.985 300.923L120.21 300.82L118.117 297.1L114.966 295.524L110.497 294.543L110.316 292.864L109.283 292.27L107.862 287.594L106.261 285.037L105.124 279.07L103.807 277.081L102.593 277.107L98.8474 271.734L96.626 271.269L94.8953 269.874L92.0538 268.789L90.9431 269.797L88.7217 271.191L85.5704 270.21L84.0721 270.391L81.5406 269.616L80.7915 268.298L82.3156 269.022L85.3378 269.254L87.8692 268.453L88.6184 266.542L91.2015 266.619L93.5262 264.914L91.1498 263.83L90.9948 262.512L90.0391 261.763L86.7585 263.468L86.1903 262.822L88.7217 261.04L91.7697 261.221L93.5262 259.722L93.8362 258.379L95.0503 257.63L96.8068 254.324L97.9434 252.774L97.7625 251.689L99.0282 249.442L98.5892 248.667L99.6999 245.567L101.818 243.836V241.873L98.6924 239.109L98.0208 239.6L92.6739 239.781L89.3674 239.187L88.4117 239.833H86.8102L84.7953 239.161L83.3746 239.213L83.1679 239.91L81.1532 240.504L78.9574 241.666L78.1051 241.615L76.6327 242.751L76.1937 242.312L78.1567 240.117L80.2233 236.888L78.7251 237.689L76.8394 237.017L77.9502 236.32L78.3634 234.821L83.5555 231.024L85.0796 228.57L86.8619 227.95L87.7142 225.729L86.8102 224.721L87.8176 223.146L87.7142 222.164H85.0796L84.0204 223.275L82.3672 222.784L79.8358 223.869L77.5109 223.636L75.522 224.437H74.4113L73.2489 225.47L73.5071 224.334L72.4481 223.895L70.2782 225.729L70.924 224.101L67.9535 222.784L67.4369 224.566L66.4294 225.315L66.7394 226.943L66.1195 226.994L66.2227 229.035L64.053 229.474L65.112 231.205L64.208 232.961L63.1488 233.013L65.7319 235.209L66.6361 236.81L64.0013 235.519L63.0456 236.32L61.1341 235.08L61.0308 235.984L61.5215 237.172L60.9274 238.05L59.9199 236.139L58.9901 238.154L59.9975 239.264L59.1968 240.297L60.7724 242.028L62.2965 242.054L60.5142 242.726L58.706 241.744Z" stroke="#224479" stroke-miterlimit="10" stroke-linecap="round" stroke-linejoin="round"/>
<path d="M212.601 481.871L213.017 483.45L214.663 484.262V485.096L213.807 485.6L214.487 486.675L216.045 487.509L215.935 489.001H216.725L217.318 489.988L216.462 489.813L215.694 490.975L216.286 491.985L219.731 493.389L221.881 492.379L223.066 488.913L222.978 486.105L224.36 481.037L223.153 476.649L223.417 473.841L222.824 470.682H221.705L221.267 472.59L221.947 474.016L221.618 475.991H220.762L219.38 474.587L218.02 475.903L214.575 477.066L213.017 479.721L214.312 480.883L213.895 481.871H212.601Z" stroke="#224479" stroke-miterlimit="10" stroke-linecap="round" stroke-linejoin="round"/>
<path d="M211.067 497.929L211.243 496.942L212.208 495.91L211.309 495.143L210.936 496.218L210.255 496.591L210.321 498.017L211.067 497.929Z" stroke="#224479" stroke-miterlimit="10" stroke-linecap="round" stroke-linejoin="round"/>
<path d="M211.655 504.97L212.094 506.615L213.542 507.866V510.433L211.919 512.1L212.599 513.416L214.837 513.592V514.491L213.454 516.071L212.423 519.867L213.367 521.271L214.486 525.746L216.219 527.501L217.053 526.997L218.193 527.501L219.817 526.821L219.97 524.342L220.672 522.85L222.823 523.026L224.183 524.342H225.477L226.333 522.784V518.704L226.75 517.563L226.245 513.175L227.101 509.204L224.183 506.725L226.684 505.145L227.013 503.478L226.421 500.911L224.973 499.331L223.327 496.436L222.471 497.269L220.497 495.777L218.786 495.953L214.661 500.67L212.862 500.736L210.273 499.266V501.657L209.856 503.237L211.655 504.97Z" stroke="#224479" stroke-miterlimit="10" stroke-linecap="round" stroke-linejoin="round"/>
<path d="M290.814 539.984L291.231 537.088L289.52 535.113L286.69 537.746L285.483 537.592L282.982 536.276L280.591 538.755L275.435 538.426L271.223 539.655L268.217 539.084L266.089 537.68L263.588 537.922L262.227 538.997L261.46 538.009L258.695 539.238L258.366 542.814L260.758 544.964L263.171 544.547L267.449 547.355L269.774 547.948L271.925 550.186L276.993 552.006L278.024 551.348L280.239 552.906L280.678 554.661L285.922 556.636L288.05 556.306L287.896 553.586L289.015 552.248L288.752 549.834L286.69 547.114L288.752 541.805L290.814 539.984Z" stroke="#224479" stroke-miterlimit="10" stroke-linecap="round" stroke-linejoin="round"/>
<path d="M265.958 429.677L265.146 427.944L267.757 424.302L266.111 422.876L262.36 423.205L255.471 421.932L249.898 418.773L250.228 416.579L246.3 416.886L243.843 416.25L237.942 419.563L234.168 417.983L231.886 420.682L233.027 424.148L228.618 425.091L228.113 429.194L226.16 427.614L224.186 427.79L219.271 426.517V429.523L216.968 433.472L215.827 431.256L212.229 429.523L212.558 427L209.925 425.421L205.845 432.2L202.883 430.949L198.473 434.108L195.84 433.165L194.853 434.262L195.182 436.939L197.31 438.847L196.652 442.489L194.041 442.796L192.396 444.53L195.182 447.382L195.687 453.064L199.285 455.433H202.729L201.237 458.746L202.027 461.094L207.446 460.172L209.421 457.781L209.508 455.96L215.344 452.801L222.913 454.709L225.129 456.113L228.464 457.057L229.407 458.812L230.065 459.975L230.965 461.664L233.027 464.889L233.115 466.798L234.914 467.873L234.826 470.944L237.503 472.195L239.214 474.257L242.308 477.065L242.637 479.062L245.905 479.15L247.968 481.782L248.407 483.537L249.855 484.02L254.484 489.746L258.959 492.971L261.109 493.3L262.996 494.529L263.413 496.35H265.475L266.945 495.033L269.271 495.955L271.487 496.108L273.9 500.409L275.348 501.33L276.642 500.825L278.529 501.506L278.354 502.975L280.328 502.91L282.39 503.063L283.86 504.884L283.597 507.034L283.092 507.956L284.189 509.031L286.515 509.206L287.458 511.027L290.376 511.685L291.671 510.939L293.294 511.927L294.325 515.415L294.852 518.706L296.036 520.198L297.002 524.103L298.274 525.924L298.186 527.898L297.002 529.324L296.08 529.346L295.444 529.719L295.729 531.891L295.444 533.953L294.106 535.445L292.724 536.169L292.175 537.025L292.263 538.67L294.742 541.084L298.011 540.82L299.656 538.67L300.073 536.345L303.167 533.953L303.43 528.907L305.317 526.999L307.291 526.494L308.059 524.936L307.467 523.927L307.84 521.119L307.203 519.869L304.022 516.973L302.223 516.731L301.455 515.612V513.989L303.079 512.914L303.474 511.268L303.342 509.864L304.637 508.526L305.405 505.893L306.436 505.257L307.971 505.06L310.297 506.135L310.977 507.122L314.487 507.166L315.716 507.89L315.431 509.535L316.396 511.532L317.954 513.44L319.972 514.252L320.06 513.616L320.674 513.133L320.411 511.378L321.376 510.018L321.705 507.21L320.85 505.74L318.963 504.467L315.277 503.568L313.017 501.286L309.529 498.763L300.6 494.134L296.3 493.125H293.974L292.877 491.392L292.965 490.404L295.795 488.496L296.212 487.004L294.237 486.016L291.495 486.433L289.696 485.929L285.396 485.951L283.948 485.095L281.842 484.7L280.24 483.099L276.905 480.619L275.282 478.184L273.22 476.166L271.662 474.016L271.574 471.778L270.631 471.273L270.455 469.365L263.084 462.169L261.702 460.348L258.959 458.944L253.979 456.377L252.772 454.709L252.421 451.572L251.149 448.83L252.18 447.996L253.891 445.517L252.356 443.63L251.149 441.305L252.005 439.637L254.484 439.308L256.809 437.334H259.288L260.934 435.754L262.492 435.008L265.036 435.622L264.488 431.893L265.958 429.677Z" stroke="#224479" stroke-miterlimit="10" stroke-linecap="round" stroke-linejoin="round"/>
<circle cx="191.929" cy="181.218" r="8.09075" transform="rotate(8.42516 191.929 181.218)" fill="#DF591C"/>
<circle cx="224.189" cy="215.189" r="8.09075" transform="rotate(8.42516 224.189 215.189)" fill="#DF591C"/>
<circle cx="439.902" cy="368.902" r="7.83791" transform="rotate(8.42516 439.902 368.902)" fill="#DF591C"/>
<path d="M67 128H164C175.046 128 184 136.954 184 148V170H87C75.9543 170 67 161.046 67 150V128Z" fill="#224479"/>
<path d="M83.212 153H81.7V143.62H83.212V147.596H88.728V143.62H90.226V153H88.728V148.954H83.212V153ZM95.1395 153.14C92.8575 153.14 91.3595 151.852 91.3595 149.528C91.3595 147.358 92.8435 145.902 95.1115 145.902C97.2675 145.902 98.7375 147.092 98.7375 149.206C98.7375 149.458 98.7235 149.654 98.6815 149.864H92.7735C92.8295 151.208 93.4875 151.922 95.0975 151.922C96.5535 151.922 97.1555 151.446 97.1555 150.62V150.508H98.6675V150.634C98.6675 152.118 97.2115 153.14 95.1395 153.14ZM95.0835 147.092C93.5435 147.092 92.8715 147.778 92.7875 149.024H97.3095V148.996C97.3095 147.708 96.5675 147.092 95.0835 147.092ZM101.914 153.14C100.472 153.14 99.5619 152.468 99.5619 151.32C99.5619 150.242 100.43 149.682 101.802 149.528L104.966 149.192V148.786C104.966 147.638 104.462 147.232 103.132 147.232C101.844 147.232 101.214 147.652 101.214 148.674V148.73H99.7159V148.674C99.7159 147.092 101.032 145.902 103.244 145.902C105.456 145.902 106.45 147.106 106.45 148.772V153H105.064V151.264H104.966C104.602 152.44 103.496 153.14 101.914 153.14ZM101.074 151.222C101.074 151.782 101.452 152.048 102.32 152.048C103.902 152.048 104.966 151.46 104.966 150.088L102.236 150.396C101.452 150.494 101.074 150.676 101.074 151.222ZM110.866 153.14C108.668 153.14 107.45 151.67 107.45 149.528C107.45 147.358 108.654 145.902 110.768 145.902C112.42 145.902 113.358 146.756 113.638 147.932H113.722V143.62H115.234V153H113.848V150.998H113.75C113.456 152.384 112.434 153.14 110.866 153.14ZM108.976 149.528C108.976 151.194 109.83 151.754 111.328 151.754C112.812 151.754 113.722 151.054 113.722 149.598V149.486C113.722 148.002 112.854 147.274 111.3 147.274C109.844 147.274 108.976 147.848 108.976 149.528ZM119.642 153.14C117.486 153.14 116.282 151.684 116.282 149.528C116.282 147.372 117.5 145.902 119.656 145.902C121.294 145.902 122.274 146.686 122.554 147.974H122.68V146.042H124.066V155.38H122.554V151.04H122.512C122.218 152.314 121.21 153.14 119.642 153.14ZM117.808 149.528C117.808 151.194 118.662 151.768 120.16 151.768C121.644 151.768 122.554 151.068 122.554 149.64V149.514C122.554 148.016 121.686 147.288 120.132 147.288C118.676 147.288 117.808 147.848 117.808 149.528ZM128.362 153.14C126.402 153.14 125.45 151.838 125.45 150.228V146.042H126.948V149.822C126.948 151.124 127.55 151.782 129.02 151.782C130.56 151.782 131.274 150.998 131.274 149.486V146.042H132.772V153H131.386V150.844H131.302C131.078 152.02 130.154 153.14 128.362 153.14ZM136.189 153.14C134.747 153.14 133.837 152.468 133.837 151.32C133.837 150.242 134.705 149.682 136.077 149.528L139.241 149.192V148.786C139.241 147.638 138.737 147.232 137.407 147.232C136.119 147.232 135.489 147.652 135.489 148.674V148.73H133.991V148.674C133.991 147.092 135.307 145.902 137.519 145.902C139.731 145.902 140.725 147.106 140.725 148.772V153H139.339V151.264H139.241C138.877 152.44 137.771 153.14 136.189 153.14ZM135.349 151.222C135.349 151.782 135.727 152.048 136.595 152.048C138.177 152.048 139.241 151.46 139.241 150.088L136.511 150.396C135.727 150.494 135.349 150.676 135.349 151.222ZM146.639 153H145.043C143.545 153 142.621 152.342 142.621 150.648V147.302H141.445V146.042H142.621V144.516H144.119V146.042H146.639V147.302H144.119V150.564C144.119 151.418 144.511 151.642 145.379 151.642H146.639V153ZM151.085 153.14C148.803 153.14 147.305 151.852 147.305 149.528C147.305 147.358 148.789 145.902 151.057 145.902C153.213 145.902 154.683 147.092 154.683 149.206C154.683 149.458 154.669 149.654 154.627 149.864H148.719C148.775 151.208 149.433 151.922 151.043 151.922C152.499 151.922 153.101 151.446 153.101 150.62V150.508H154.613V150.634C154.613 152.118 153.157 153.14 151.085 153.14ZM151.029 147.092C149.489 147.092 148.817 147.778 148.733 149.024H153.255V148.996C153.255 147.708 152.513 147.092 151.029 147.092ZM157.327 153H155.815V146.042H157.201V147.918H157.299C157.509 146.798 158.265 145.902 159.693 145.902C161.275 145.902 161.961 147.036 161.961 148.352V149.262H160.463V148.646C160.463 147.652 160.043 147.19 159.007 147.19C157.817 147.19 157.327 147.848 157.327 149.094V153ZM166.201 153.14C163.961 153.14 162.687 152.258 162.687 150.648V150.606H164.199V150.718C164.199 151.628 164.745 151.922 166.201 151.922C167.559 151.922 167.965 151.642 167.965 151.026C167.965 150.452 167.629 150.27 166.635 150.13L164.731 149.878C163.415 149.71 162.617 149.15 162.617 147.988C162.617 146.77 163.723 145.902 165.865 145.902C167.993 145.902 169.281 146.756 169.281 148.408V148.45H167.783V148.366C167.783 147.54 167.363 147.106 165.823 147.106C164.549 147.106 164.101 147.386 164.101 148.044C164.101 148.59 164.381 148.786 165.431 148.926L167.041 149.15C168.693 149.36 169.449 149.92 169.449 151.068C169.449 152.37 168.161 153.14 166.201 153.14Z" fill="white"/>
<path d="M224 230H262C273.046 230 282 238.954 282 250V272H244C232.954 272 224 263.046 224 252V230Z" fill="#224479"/>
<path d="M243.306 255.14C240.366 255.14 238.42 253.236 238.42 250.31C238.42 247.384 240.366 245.48 243.306 245.48C246.274 245.48 248.206 247.384 248.206 250.31C248.206 253.236 246.274 255.14 243.306 255.14ZM243.306 253.684C245.532 253.684 246.61 252.648 246.61 250.31C246.61 247.972 245.532 246.922 243.306 246.922C241.08 246.922 240.016 247.972 240.016 250.31C240.016 252.648 241.08 253.684 243.306 253.684ZM252.613 255.14C250.373 255.14 249.099 254.258 249.099 252.648V252.606H250.611V252.718C250.611 253.628 251.157 253.922 252.613 253.922C253.971 253.922 254.377 253.642 254.377 253.026C254.377 252.452 254.041 252.27 253.047 252.13L251.143 251.878C249.827 251.71 249.029 251.15 249.029 249.988C249.029 248.77 250.135 247.902 252.277 247.902C254.405 247.902 255.693 248.756 255.693 250.408V250.45H254.195V250.366C254.195 249.54 253.775 249.106 252.235 249.106C250.961 249.106 250.513 249.386 250.513 250.044C250.513 250.59 250.793 250.786 251.843 250.926L253.453 251.15C255.105 251.36 255.861 251.92 255.861 253.068C255.861 254.37 254.573 255.14 252.613 255.14ZM258.464 255H256.952V245.62H258.464V255ZM263.42 255.14C261.11 255.14 259.556 253.67 259.556 251.528C259.556 249.358 261.11 247.902 263.42 247.902C265.744 247.902 267.298 249.358 267.298 251.528C267.298 253.67 265.744 255.14 263.42 255.14ZM263.42 253.796C265.114 253.796 265.814 252.998 265.814 251.528C265.814 250.044 265.114 249.232 263.42 249.232C261.74 249.232 261.04 250.044 261.04 251.528C261.04 252.998 261.74 253.796 263.42 253.796Z" fill="white"/>
<path d="M382 310H420C431.046 310 440 318.954 440 330V352H402C390.954 352 382 343.046 382 332V310Z" fill="#224479"/>
<path d="M398.212 335H396.7V325.62H398.212V329.624H401.054L403.798 325.62H405.59L402.314 330.254L405.576 335H403.784L401.082 331.08H398.212V335ZM407.513 337.38H406.519V336.008H407.877C408.493 336.008 408.745 335.84 408.955 335.364L409.123 335L405.693 328.042H407.387L409.165 331.738L409.851 333.404H409.963L410.621 331.724L412.259 328.042H413.925L410.299 335.756C409.725 337.002 408.941 337.38 407.513 337.38ZM416.177 327.23H414.665V325.62H416.177V327.23ZM416.177 335H414.665V328.042H416.177V335ZM422.043 335H420.195L416.947 328.042H418.613L421.091 333.53H421.203L423.681 328.042H425.319L422.043 335Z" fill="white"/>
</g>
<defs>
<clipPath id="clip0_1510_3192">
<rect width="540" height="557" fill="white"/>
</clipPath>
</defs>
</svg>
