<svg width="44" height="44" viewBox="0 0 44 44" fill="none" xmlns="http://www.w3.org/2000/svg">
<rect x="44" y="44" width="44" height="44" rx="22" transform="rotate(-180 44 44)" fill="#DEE3EB"/>
<path d="M13.6464 21.6464C13.4512 21.8417 13.4512 22.1583 13.6464 22.3536L16.8284 25.5355C17.0237 25.7308 17.3403 25.7308 17.5355 25.5355C17.7308 25.3403 17.7308 25.0237 17.5355 24.8284L14.7071 22L17.5355 19.1716C17.7308 18.9763 17.7308 18.6597 17.5355 18.4645C17.3403 18.2692 17.0237 18.2692 16.8284 18.4645L13.6464 21.6464ZM30 21.5L14 21.5L14 22.5L30 22.5L30 21.5Z" fill="black"/>
</svg>
