<svg width="44" height="44" viewBox="0 0 44 44" fill="none" xmlns="http://www.w3.org/2000/svg">
<path d="M21.6464 28.3536C21.8417 28.5488 22.1583 28.5488 22.3536 28.3536L25.5355 25.1716C25.7308 24.9763 25.7308 24.6597 25.5355 24.4645C25.3403 24.2692 25.0237 24.2692 24.8284 24.4645L22 27.2929L19.1716 24.4645C18.9763 24.2692 18.6597 24.2692 18.4645 24.4645C18.2692 24.6597 18.2692 24.9763 18.4645 25.1716L21.6464 28.3536ZM21.5 16L21.5 28L22.5 28L22.5 16L21.5 16Z" fill="#224479"/>
<rect x="43.5" y="0.5" width="43" height="43" rx="21.5" transform="rotate(90 43.5 0.5)" stroke="#DEE3EB"/>
</svg>
