<svg width="40" height="40" viewBox="0 0 40 40" fill="none" xmlns="http://www.w3.org/2000/svg">
<rect x="0.5" y="0.5" width="39" height="39" rx="19.5" fill="#224479"/>
<path d="M25.3 26C23.9111 26 22.5389 25.6972 21.1833 25.0917C19.8278 24.4861 18.5944 23.6278 17.4833 22.5167C16.3722 21.4056 15.5139 20.1722 14.9083 18.8167C14.3028 17.4611 14 16.0889 14 14.7C14 14.5 14.0667 14.3333 14.2 14.2C14.3333 14.0667 14.5 14 14.7 14H17.4C17.5556 14 17.6944 14.0528 17.8167 14.1583C17.9389 14.2639 18.0111 14.3889 18.0333 14.5333L18.4667 16.8667C18.4889 17.0444 18.4833 17.1944 18.45 17.3167C18.4167 17.4389 18.3556 17.5444 18.2667 17.6333L16.65 19.2667C16.8722 19.6778 17.1361 20.075 17.4417 20.4583C17.7472 20.8417 18.0833 21.2111 18.45 21.5667C18.7944 21.9111 19.1556 22.2306 19.5333 22.525C19.9111 22.8194 20.3111 23.0889 20.7333 23.3333L22.3 21.7667C22.4 21.6667 22.5306 21.5917 22.6917 21.5417C22.8528 21.4917 23.0111 21.4778 23.1667 21.5L25.4667 21.9667C25.6222 22.0111 25.75 22.0917 25.85 22.2083C25.95 22.325 26 22.4556 26 22.6V25.3C26 25.5 25.9333 25.6667 25.8 25.8C25.6667 25.9333 25.5 26 25.3 26ZM16.0167 18L17.1167 16.9L16.8333 15.3333H15.35C15.4056 15.7889 15.4833 16.2389 15.5833 16.6833C15.6833 17.1278 15.8278 17.5667 16.0167 18ZM21.9833 23.9667C22.4167 24.1556 22.8583 24.3056 23.3083 24.4167C23.7583 24.5278 24.2111 24.6 24.6667 24.6333V23.1667L23.1 22.85L21.9833 23.9667Z" fill="white"/>
<rect x="0.5" y="0.5" width="39" height="39" rx="19.5" stroke="#224479"/>
</svg>
