<svg width="40" height="40" viewBox="0 0 40 40" fill="none" xmlns="http://www.w3.org/2000/svg">
<path fill-rule="evenodd" clip-rule="evenodd" d="M17.4031 26C22.6862 26 25.5758 21.6903 25.5758 17.9535C25.5758 17.8308 25.5758 17.7091 25.5674 17.5878C26.1296 17.188 26.6147 16.6917 27.0004 16.1238C26.4768 16.3526 25.9203 16.5027 25.3511 16.5689C25.9504 16.2153 26.3991 15.6598 26.614 15.0044C26.0498 15.3338 25.433 15.5663 24.7897 15.6911C23.7019 14.5525 21.8825 14.4974 20.7254 15.5684C19.9799 16.259 19.6628 17.2886 19.8945 18.2707C17.5851 18.1563 15.4333 17.0825 13.9744 15.3161C13.2121 16.6084 13.602 18.2609 14.8642 19.0907C14.407 19.0776 13.9597 18.9564 13.56 18.7373V18.7732C13.5607 20.1192 14.5246 21.2782 15.8645 21.5449C15.4417 21.6586 14.9979 21.6751 14.568 21.5931C14.944 22.7454 16.0227 23.5347 17.2512 23.5574C16.2341 24.3445 14.9776 24.7719 13.6839 24.7705C13.4557 24.7698 13.2275 24.7567 13 24.7298C14.3139 25.5596 15.8421 26 17.4031 25.9979" fill="#224479"/>
<rect x="0.5" y="0.5" width="39" height="39" rx="19.5" stroke="#224479"/>
</svg>
