<svg width="160" height="49" viewBox="0 0 160 49" fill="none" xmlns="http://www.w3.org/2000/svg">
<g clip-path="url(#clip0_984_1389)">
<path d="M8.90902 16.3999L8.78442 17.0489L7.29486 24.8186L6.45097 29.2155H6.45947L7.30053 24.8186L8.79009 17.0489L8.91469 16.3999H8.90902ZM17.9851 16.3999L17.8605 17.0489L16.371 24.8186L15.5299 29.2155H15.5384L16.3795 24.8186L17.869 17.0489L17.9936 16.3999H17.9851Z" fill="white"/>
<path d="M38.2726 3.91016L36.783 11.6798H18.897L13.6524 39.0624L6.16212 41.0355C5.42017 40.4204 5.20212 40.2379 4.45734 39.6228L6.45097 29.2155H6.45947L7.30053 24.8186L8.79009 17.0489L8.91469 16.3999H8.90902L11.3019 3.91016H38.2726Z" fill="white"/>
<path d="M8.78442 17.0489L7.29486 24.8186H7.30053L8.79009 17.0489H8.78442ZM17.8605 17.0489L16.371 24.8186H16.3795L17.869 17.0489H17.8605ZM1.48956 17.049L0 24.8186H5.6892L7.17876 17.049H1.48956ZM41.6935 27.034C42.8715 20.8856 38.3179 17.049 31.1561 17.049H19.4719L17.9823 24.8186H29.6665C31.697 24.8186 32.8467 25.8038 32.5239 27.4771C32.1954 29.1999 30.669 30.1825 28.6386 30.1825H24.1473L22.6605 37.9574L28.8765 49.0241H38.8729L39.2212 47.2022L32.7561 36.576L32.8127 36.2841C37.3607 34.8584 40.8354 31.5092 41.6935 27.034Z" fill="white"/>
<path d="M8.91469 16.3999L8.79009 17.0489L7.30053 24.8186L6.45947 29.2155H6.45097L7.29486 24.8186L8.78442 17.0489L8.90902 16.3999H8.91469Z" fill="white"/>
<path d="M53.4492 17.2991V3.91016H65.0202V5.84931H55.794V10.0065H64.6945V11.9248H55.794V17.2991H53.4492Z" fill="white"/>
<path d="M66.3087 17.2991V3.91016H77.9448V5.84931H68.6534V9.6051H77.6191V11.5234H68.6534V15.36H77.9448V17.2991H66.3087Z" fill="white"/>
<path d="M79.7147 17.2991V3.91016H82.2322L88.7455 11.7423L90.6343 14.2393H90.8071L90.6995 11.8205V3.91016H93.0443V17.2991H90.5267L83.971 9.48521L82.1473 7.12643H81.9745L82.0623 9.44351V17.2965H79.7147V17.2991Z" fill="white"/>
<path d="M95.2673 17.2991V3.91016H97.612V17.2991H95.2673Z" fill="white"/>
<path d="M98.4446 17.2991L104.307 10.6451V10.4861L98.4446 3.91016H101.483L106.215 9.18548H106.388L111.018 3.91016H114.057L108.195 10.5043V10.6633L114.057 17.2965H111.018L106.306 11.9222H106.133L101.486 17.2965H98.4446V17.2991Z" fill="white"/>
<path d="M53.4492 36.2527V22.8637H61.0046C64.3037 22.8637 66.3455 24.3024 66.3455 26.7993C66.3455 29.0174 64.7597 30.3753 62.0241 30.516V30.6568C63.154 30.9357 63.6751 31.5351 64.1961 32.3744L66.6287 36.2501H63.9356L61.6135 32.5542C60.9621 31.496 60.2882 31.0556 58.4644 31.0556H55.794V36.2501H53.4492V36.2527ZM55.794 29.3979H60.982C62.9359 29.3979 63.9129 28.7776 63.9129 27.0991C63.9129 25.4597 62.9359 24.8002 60.982 24.8002H55.794V29.3979Z" fill="white"/>
<path d="M67.937 36.2527V22.8637H79.5759V24.8029H70.2846V28.5586H79.2503V30.4769H70.2846V34.3135H79.5759V36.2527H67.937Z" fill="white"/>
<path d="M81.343 36.2527V22.8637H88.4652C91.6991 22.8637 93.9136 24.5631 93.9136 27.5396C93.9136 30.4978 91.6991 32.2154 88.4652 32.2154H83.6878V36.2527H81.343ZM83.6878 24.8029V30.2789H88.2471C90.439 30.2789 91.5689 29.5204 91.5689 27.5422C91.5689 25.5639 90.439 24.8055 88.2471 24.8055H83.6878V24.8029Z" fill="white"/>
<path d="M94.6867 29.557C94.6867 25.3816 97.7055 22.6631 102.265 22.6631C106.867 22.6631 109.863 25.3816 109.863 29.557C109.863 33.7324 106.867 36.4509 102.265 36.4509C97.7055 36.4509 94.6867 33.735 94.6867 29.557ZM107.388 29.557C107.388 26.2208 105.717 24.7222 102.265 24.7222C98.8127 24.7222 97.1618 26.2208 97.1618 29.557C97.1618 32.8932 98.8127 34.3736 102.265 34.3736C105.717 34.3736 107.388 32.8958 107.388 29.557Z" fill="white"/>
<path d="M113.853 36.2527L110.01 22.8637H112.615L114.983 31.3371L115.634 34.1754H115.807L116.588 31.3371L119.519 22.8637H122.929L126.055 31.3371L126.879 34.1754H127.052L127.661 31.3371L129.833 22.8637H132.396L128.748 36.2527H125.296L122.365 28.4596L121.301 25.0218H121.105L120.063 28.4596L117.305 36.2527H113.853Z" fill="white"/>
<path d="M133.438 36.2527V22.8637H145.074V24.8029H135.783V28.5586H144.748V30.4769H135.783V34.3135H145.074V36.2527H133.438Z" fill="white"/>
<path d="M146.844 36.2527V22.8637H154.399C157.698 22.8637 159.74 24.3024 159.74 26.7993C159.74 29.0174 158.154 30.3753 155.419 30.516V30.6568C156.549 30.9357 157.07 31.5351 157.591 32.3744L160.023 36.2501H157.33L155.008 32.5542C154.357 31.496 153.683 31.0556 151.859 31.0556H149.189V36.2501H146.844V36.2527ZM149.189 29.3979H154.377C156.331 29.3979 157.308 28.7776 157.308 27.0991C157.308 25.4597 156.331 24.8002 154.377 24.8002H149.189V29.3979Z" fill="white"/>
</g>
<defs>
<clipPath id="clip0_984_1389">
<rect width="160" height="49" fill="white"/>
</clipPath>
</defs>
</svg>
